<?xml version="1.0" standalone="no"?>
<!DOCTYPE svg PUBLIC "-//W3C//DTD SVG 1.1//EN" "http://www.w3.org/Graphics/SVG/1.1/DTD/svg11.dtd" >
<svg xmlns="http://www.w3.org/2000/svg">
<metadata></metadata>
<defs>
<font id="fabiolosmallcaplight" horiz-adv-x="343" >
<font-face units-per-em="1000" ascent="800" descent="-200" />
<missing-glyph horiz-adv-x="220" />
<glyph unicode=" "  horiz-adv-x="220" />
<glyph unicode="&#x09;" horiz-adv-x="220" />
<glyph unicode="&#xa0;" horiz-adv-x="220" />
<glyph unicode="!" horiz-adv-x="128" d="M0 683v-549q0 -17 18 -17.5t18 17.5v549q0 17 -18 17t-18 -17zM0 17q0 -7 5 -12t12 -5q9 0 15 5t6 12q0 21 -21 21q-17 0 -17 -21z" />
<glyph unicode="&#x22;" horiz-adv-x="197" d="M0 632v-153q0 -17 18 -17.5t18 17.5v153q0 16 -18 16t-18 -16zM71 632v-153q0 -17 18 -17.5t18 17.5v153q0 16 -18 16t-18 -16z" />
<glyph unicode="#" horiz-adv-x="387" d="M230 260h48q8 0 13.5 -5.5t5.5 -13.5q0 -7 -5.5 -13t-13.5 -6h-54l-16 -102h50q18 0 18.5 -19t-18.5 -19h-55l-10 -66q-3 -12 -13.5 -15.5t-18.5 3.5t-6 18l9 60h-59l-10 -66q-2 -14 -12.5 -16.5t-19 4.5t-6.5 18l9 60h-47q-18 0 -18.5 19t18.5 19h53l16 102h-49 q-18 0 -18.5 19t18.5 19h54l11 68q3 18 21.5 15.5t15.5 -21.5l-9 -62h59l11 68q3 18 21.5 15.5t15.5 -21.5zM110 120h60l16 102h-60z" />
<glyph unicode="$" horiz-adv-x="402" d="M195 793v-94q67 -8 112 -57.5t45 -117.5q0 -18 -19 -18.5t-19 18.5q0 57 -40.5 97.5t-97.5 40.5t-97.5 -40.5t-40.5 -97.5q0 -52 36 -88.5t115 -62.5q83 -28 123 -74.5t40 -120.5q0 -67 -45.5 -117t-111.5 -57v-98q0 -19 -19 -19t-19 19v97q-67 8 -112 57.5t-45 117.5 q0 19 19 19t19 -19q0 -57 40.5 -97.5t97.5 -40.5t97.5 40.5t40.5 97.5q0 61 -32 98t-105 61q-85 28 -131 73t-46 114q0 68 45.5 118t111.5 57v94q0 19 19 19t19 -19z" />
<glyph unicode="%" horiz-adv-x="455" d="M352 597l-322 -569q-5 -9 1 -18t15.5 -9.5t16.5 8.5l322 570q6 10 -0.5 19t-16 9t-16.5 -10zM87 430q36 0 61.5 25.5t25.5 61.5t-25.5 61.5t-61.5 25.5t-61.5 -25.5t-25.5 -61.5t25.5 -61.5t61.5 -25.5zM87 572q23 0 39 -16t16 -39t-16 -39t-39 -16t-39 16t-16 39t16 39 t39 16zM318 3q36 0 61.5 25.5t25.5 61.5t-25.5 61.5t-61.5 25.5t-62 -25.5t-26 -61.5t26 -61.5t62 -25.5zM318 145q22 0 38 -16t16 -39t-15.5 -39t-38.5 -16t-39 16t-16 39t16 39t39 16z" />
<glyph unicode="&#x26;" horiz-adv-x="637" d="M0 202v-24q0 -72 52 -125t122 -53q77 0 124 53l104 104l132 -136q7 -5 18 -5t18 5q7 7 7 17q0 11 -7 17l-137 133l147 146q16 18 0 35q-5 4 -16 4q-9 0 -16 -4l-146 -146l-9 9q-22 23 -54 55q-54 54 -61 57l-19 9l17 12q76 52 76 137v5q0 69 -52 119q-53 50 -126 50 q-70 0 -122 -50q-52 -49 -52 -119v-5q0 -83 71 -137l12 -10l-11 -9q-36 -30 -53 -64q-19 -37 -19 -80zM178 376h-10q-53 5 -87 40.5t-34 85.5q0 52 37.5 89.5t89.5 37.5q56 0 93.5 -36.5t37.5 -90.5q0 -50 -36 -86t-90 -40h-1zM47 178v24q0 50 34.5 86t87.5 41h9 q56 0 86 -38l103 -103l-104 -103q-36 -38 -89 -38q-52 0 -89.5 38.5t-37.5 92.5z" />
<glyph unicode="(" horiz-adv-x="232" d="M0 634v-568q0 -59 31 -105.5t83 -67.5q11 -4 20 2.5t8 17.5t-14 16q-40 16 -65 54t-25 83v568q0 46 25 83.5t65 53.5q11 4 11.5 15t-7.5 18.5t-18 2.5q-52 -20 -83 -67.5t-31 -105.5z" />
<glyph unicode=")" horiz-adv-x="232" d="M104 634v-568q0 -45 -25 -83t-65 -54q-13 -5 -14 -16t8 -17.5t20 -2.5q52 21 83 67.5t31 105.5v568q0 58 -31 105.5t-83 67.5q-10 5 -18 -2.5t-7.5 -18.5t11.5 -15q40 -16 65 -53.5t25 -83.5z" />
<glyph unicode="*" horiz-adv-x="365" d="M171 519h86q18 0 18.5 -19t-18.5 -19h-86l43 -75q6 -11 -1 -19.5t-17 -8t-15 8.5l-43 75l-43 -75q-9 -15 -25.5 -6.5t-7.5 25.5l43 75h-86q-18 0 -18.5 19t18.5 19h86l-43 74q-6 10 0.5 19t16 9.5t16.5 -9.5l43 -74l43 74q7 9 16.5 9t16 -9t0.5 -19z" />
<glyph unicode="+" horiz-adv-x="428" d="M209 227h149q12 0 17.5 -9.5t0.5 -19t-18 -9.5h-149v-168q0 -21 -19 -21t-19 21v168h-149q-21 0 -21 19t21 19h149v168q0 13 9.5 18t19 0t9.5 -18v-168z" />
<glyph unicode="," horiz-adv-x="210" d="M25 -62q27 0 61 49t34 105q0 18 -19 18.5t-19 -18.5q0 -78 -67 -119q-13 -7 -8.5 -21t18.5 -14z" />
<glyph unicode="-" horiz-adv-x="349" d="M24 233h210q16 0 22.5 9.5t0 19t-22.5 9.5h-210q-16 0 -22 -9.5t0.5 -19t21.5 -9.5z" />
<glyph unicode="." horiz-adv-x="130" d="M0 18q0 -7 5.5 -12.5t12.5 -5.5q9 0 15.5 5.5t6.5 12.5q0 10 -6.5 16t-15.5 6q-18 0 -18 -22z" />
<glyph unicode="/" horiz-adv-x="352" d="M226 636l-226 -611q-4 -11 3.5 -18.5t18 -6t14.5 12.5l225 611q4 11 -3 18.5t-17.5 6t-14.5 -12.5z" />
<glyph unicode="0" horiz-adv-x="475" d="M0 519v-338q0 -73 54 -127t127 -54q75 0 129.5 53.5t54.5 127.5v338q0 73 -55 127t-130 54q-73 0 -126.5 -54t-53.5 -127zM38 181v338q0 53 44.5 98t97.5 45q56 0 101.5 -44.5t45.5 -98.5v-338q0 -54 -45 -98.5t-101 -44.5q-53 0 -98 45t-45 98z" />
<glyph unicode="1" horiz-adv-x="267" d="M119 627v-606q0 -14 9.5 -19.5t19 0.5t9.5 19v655q0 16 -11 21.5t-21 -5.5l-118 -136q-5 -5 -6 -12t2 -12t7.5 -8t11 -2t12.5 7z" />
<glyph unicode="2" horiz-adv-x="482" d="M304 429l-293 -395q-25 -34 18 -34h318q16 0 22.5 9.5t0 19t-22.5 9.5h-282l271 375q31 45 31 106q0 75 -52.5 128t-128.5 53t-131 -53t-55 -128q0 -15 9.5 -21t19 0t9.5 21q0 62 42 102.5t106 40.5q59 0 101 -42.5t42 -100.5q0 -56 -25 -90z" />
<glyph unicode="3" horiz-adv-x="474" d="M326 209v-29q0 -56 -44 -99t-102 -43q-56 0 -99 43t-43 99q0 21 -19 21t-19 -21q0 -75 52.5 -127.5t127.5 -52.5q76 0 130 52.5t54 127.5v29q0 48 -21 85t-72 71q52 32 72.5 67.5t20.5 83.5q0 75 -55 129.5t-129 54.5q-73 0 -126.5 -54.5t-53.5 -129.5q0 -13 9.5 -19 t19 -0.5t9.5 19.5q0 56 44 101t98 45q58 0 102 -44t44 -102q0 -56 -45 -93.5t-101 -37.5h-32q-12 0 -17 -9.5t0 -19t17 -9.5h32q56 0 101 -42t45 -96z" />
<glyph unicode="4" horiz-adv-x="513" d="M261 163v-140q0 -14 9.5 -20t19 0t9.5 20v140h84q13 0 18 9.5t0 19t-18 9.5h-84v149q0 12 -9.5 17t-19 0t-9.5 -17v-149h-214l214 470q8 19 -7 27.5t-23 -9.5l-224 -483q-10 -18 -4 -30.5t23 -12.5h235z" />
<glyph unicode="5" horiz-adv-x="462" d="M314 261v-84q0 -58 -40.5 -98.5t-97.5 -40.5t-97.5 40.5t-40.5 98.5q0 19 -19 19t-19 -19q0 -73 51.5 -125t124.5 -52t124.5 52t51.5 125v84q0 73 -51.5 124.5t-124.5 51.5h-98l26 225h204q18 0 18.5 19t-18.5 19h-221q-17 0 -19 -17l-30 -263q-1 -11 5 -16t14 -5h119 q57 0 97.5 -40.5t40.5 -97.5z" />
<glyph unicode="6" horiz-adv-x="462" d="M265 671l-149 -241q79 29 157.5 -19t78.5 -147v-88q0 -73 -51.5 -124.5t-124.5 -51.5t-124.5 51.5t-51.5 124.5v88q0 52 29 96l204 330q6 10 16.5 9t15.5 -9t0 -19zM38 264v-88q0 -57 40.5 -97.5t97.5 -40.5t97.5 40.5t40.5 97.5v88q0 57 -40.5 97.5t-97.5 40.5 t-97.5 -40.5t-40.5 -97.5z" />
<glyph unicode="7" horiz-adv-x="470" d="M311 662l-306 -634q-5 -10 1.5 -19t16.5 -8.5t16 10.5l320 662q4 11 -1.5 19t-16.5 8h-322q-18 0 -18.5 -19t18.5 -19h292z" />
<glyph unicode="8" horiz-adv-x="462" d="M352 523v-2q0 -51 -26.5 -93t-70.5 -64q44 -22 70.5 -64.5t26.5 -92.5v-30q0 -73 -51.5 -125t-124.5 -52t-124.5 52t-51.5 125v30q0 50 26.5 92.5t69.5 64.5q-44 22 -70 64t-26 93v2q0 73 51.5 125t124.5 52t124.5 -52t51.5 -125zM38 523v-2q0 -57 40.5 -97.5t97.5 -40.5 t97.5 40.5t40.5 97.5v2q0 58 -40.5 98.5t-97.5 40.5t-97.5 -40.5t-40.5 -98.5zM38 207v-30q0 -58 40.5 -98.5t97.5 -40.5t97.5 40.5t40.5 98.5v30q0 57 -40.5 97.5t-97.5 40.5t-97.5 -40.5t-40.5 -97.5z" />
<glyph unicode="9" horiz-adv-x="462" d="M87 28l149 241q-37 -16 -78.5 -9t-76.5 26.5t-58 59t-23 89.5v88q0 73 51.5 124.5t124.5 51.5t124.5 -51.5t51.5 -124.5v-88q0 -53 -29 -96l-204 -330q-6 -10 -16.5 -9t-15.5 9t0 19zM314 435v88q0 57 -40.5 97.5t-97.5 40.5t-97.5 -40.5t-40.5 -97.5v-88 q0 -57 40.5 -97.5t97.5 -40.5t97.5 40.5t40.5 97.5z" />
<glyph unicode=":" horiz-adv-x="130" d="M0 428q0 -7 5.5 -12.5t12.5 -5.5q9 0 15.5 5.5t6.5 12.5q0 10 -6.5 16t-15.5 6q-18 0 -18 -22zM0 18q0 -7 5.5 -12.5t12.5 -5.5q9 0 15.5 5.5t6.5 12.5q0 10 -6.5 16t-15.5 6q-18 0 -18 -22z" />
<glyph unicode=";" horiz-adv-x="210" d="M73 434q0 -7 5.5 -12.5t12.5 -5.5q9 0 15.5 5.5t6.5 12.5q0 10 -6.5 16t-15.5 6q-18 0 -18 -22zM25 -62q34 0 64.5 54t30.5 100q0 18 -19 18.5t-19 -18.5q0 -78 -67 -119q-13 -7 -8.5 -21t18.5 -14z" />
<glyph unicode="&#x3c;" horiz-adv-x="317" d="M236 5l-228 180q-18 14 0 30l228 180q10 8 20 3t11 -15t-8 -18l-208 -165l208 -166q10 -8 8 -18.5t-11 -13.5t-20 3z" />
<glyph unicode="=" horiz-adv-x="424" d="M24 191h325q16 0 22.5 9.5t0 19t-22.5 9.5h-325q-16 0 -22 -9.5t1 -19t21 -9.5zM24 0h325q16 0 22.5 9.5t0 19t-22.5 9.5h-325q-16 0 -22 -9.5t1 -19t21 -9.5z" />
<glyph unicode="&#x3e;" horiz-adv-x="318" d="M31 395l228 -180q18 -16 0 -30l-228 -180q-10 -8 -20 -3.5t-11 14t8 18.5l208 166l-208 165q-9 7 -7.5 18t10.5 14.5t20 -2.5z" />
<glyph unicode="?" horiz-adv-x="442" d="M159 227v-99q0 -19 19 -19t19 19v99q0 55 36 93l84 92q35 39 35 111q0 73 -51.5 125t-124.5 52t-124.5 -52t-51.5 -125q0 -18 19 -18.5t19 18.5q0 58 40.5 98.5t97.5 40.5t97.5 -40.5t40.5 -98.5q0 -57 -25 -85l-84 -92q-46 -49 -46 -119zM158 23q0 -10 6.5 -16.5 t15.5 -6.5t16 6.5t7 16.5q0 8 -7 15t-16 7t-15.5 -7t-6.5 -15z" />
<glyph unicode="@" horiz-adv-x="681" d="M456 236h35q45 0 78 21t47.5 51.5t14 66.5t-18.5 66q-79 147 -277 147q-141 0 -238 -101t-97 -241q0 -142 98 -239.5t237 -97.5q163 0 264 128q8 11 2.5 20.5t-15.5 10t-17 -7.5q-42 -54 -103.5 -83.5t-130.5 -29.5q-125 0 -211 86.5t-86 212.5t87 215t210 89 q90 0 148.5 -30.5t95.5 -96.5q30 -58 1.5 -103.5t-89.5 -45.5h-35v89q0 47 -26 79.5t-63 40t-74.5 0t-63.5 -40t-26 -79.5q0 -19 19 -19t19 19q0 42 27.5 65.5t61 23.5t61 -23.5t27.5 -65.5v-89h-89q-55 0 -90.5 -36t-35.5 -97q0 -50 26 -83.5t63.5 -40.5t74.5 1t63 39.5 t26 76.5v102zM418 236v-102q0 -31 -18 -53t-44 -27.5t-52.5 -0.5t-44.5 28.5t-18 59.5q0 46 24.5 70.5t63.5 24.5h89z" />
<glyph unicode="A" horiz-adv-x="463" d="M180 686l-168 -656q-4 -14 3.5 -23.5t18.5 -6t16 21.5l54 204h161l47 -206q4 -16 15.5 -21t20 3t4.5 24l-151 660q-2 10 -6.5 13t-8.5 -1t-6 -12zM256 264h-145l78 319z" />
<glyph unicode="B" horiz-adv-x="454" d="M0 678v-662q0 -17 27 -17h120q76 0 128 47t65 109.5t-11 127.5t-85 98q70 42 79.5 120t-41 139.5t-135.5 61.5h-120q-27 0 -27 -24zM163 401h-125v261h109q80 0 115.5 -65t6.5 -130.5t-106 -65.5zM147 37h-109v326h125q94 0 128.5 -81.5t-8 -163t-136.5 -81.5z" />
<glyph unicode="C" horiz-adv-x="465" d="M0 524v-350q0 -21 8 -47.5t26 -57t55 -50.5t87 -20q49 0 86.5 20.5t56 50.5t27.5 57t9 47q0 17 -9.5 23.5t-19 -0.5t-9.5 -23q0 -52 -43.5 -94.5t-97.5 -42.5q-53 0 -95.5 42t-42.5 95v350q0 52 42.5 94.5t95.5 42.5q54 0 97.5 -42.5t43.5 -94.5q0 -18 9.5 -24t19 1.5 t9.5 22.5q0 70 -54 122.5t-125 52.5t-123.5 -52t-52.5 -123z" />
<glyph unicode="D" horiz-adv-x="465" d="M0 682v-661q0 -21 21 -21h159q79 0 127 48t48 127v350q0 79 -48 127t-127 48h-159q-21 0 -21 -18zM180 38h-142v624h142q64 0 100.5 -36t36.5 -101v-350q0 -53 -42 -95t-95 -42z" />
<glyph unicode="E" horiz-adv-x="493" d="M0 682v-661q0 -21 21 -21h336q17 0 23.5 9.5t0 19t-23.5 9.5h-319v288h203q9 0 13 0.5t8.5 5.5t4.5 14q0 7 -8 12.5t-18 5.5h-203v298h319q27 0 25.5 19t-25.5 19h-336q-21 0 -21 -18z" />
<glyph unicode="F" horiz-adv-x="469" d="M0 682v-659q0 -16 9.5 -21.5t19 1.5t9.5 20v316h209q16 0 21.5 9.5t-1.5 19t-20 9.5h-209v285h300q14 0 19 9.5t-1 19t-18 9.5h-317q-21 0 -21 -18z" />
<glyph unicode="G" horiz-adv-x="489" d="M0 525v-350q0 -80 57 -127.5t141 -47.5q74 0 127.5 52t53.5 123v95q0 7 -6.5 12t-14.5 5h-155q-15 0 -20 -9.5t1.5 -19t18.5 -9.5h138v-74q0 -52 -44 -94.5t-99 -42.5q-71 0 -115.5 41t-44.5 96v350q0 55 49.5 96t108.5 41q55 0 100 -43.5t45 -97.5q0 -15 9.5 -20t19 1 t9.5 19q0 73 -54.5 126t-128.5 53q-83 0 -139.5 -48.5t-56.5 -126.5z" />
<glyph unicode="H" horiz-adv-x="470" d="M322 342v-316q0 -27 19 -25.5t19 25.5v651q0 14 -9.5 20t-19 0.5t-9.5 -20.5v-297h-284v297q0 15 -9.5 21t-19 0t-9.5 -21v-651q0 -17 9.5 -23.5t19 0t9.5 23.5v316h284z" />
<glyph unicode="I" horiz-adv-x="168" d="M0 679v-657q0 -24 19 -22.5t19 22.5v657q0 14 -9.5 19.5t-19 0t-9.5 -19.5z" />
<glyph unicode="J" horiz-adv-x="467" d="M319 662v-487q0 -52 -44 -94.5t-99 -42.5q-51 0 -94.5 43.5t-43.5 93.5q0 17 -9.5 24.5t-19 0t-9.5 -24.5q0 -70 52.5 -122.5t123.5 -52.5q74 0 127.5 52t53.5 123v507q0 18 -21 18h-155q-18 0 -24 -9.5t1.5 -19t22.5 -9.5h138z" />
<glyph unicode="K" horiz-adv-x="489" d="M341 188v-167q0 -13 9.5 -18.5t19 0t9.5 18.5v167q0 82 -60 141t-140 59h-109l240 270q13 14 10.5 26.5t-14.5 12.5t-25 -12l-243 -271v263q0 15 -9.5 21t-19 0t-9.5 -21v-655q0 -24 19 -22.5t19 22.5v328h141q61 0 111.5 -50t50.5 -112z" />
<glyph unicode="L" horiz-adv-x="466" d="M0 677v-656q0 -21 21 -21h312q14 0 20 9.5t0 19t-20 9.5h-295v639q0 15 -9.5 21t-19 0t-9.5 -21z" />
<glyph unicode="M" horiz-adv-x="581" d="M434 613v-587q0 -27 18.5 -25.5t18.5 25.5v654q0 13 -7 18t-16 0.5t-15 -15.5l-210 -328l-185 329q-9 19 -23.5 16t-14.5 -20v-654q0 -27 19 -25.5t19 25.5v582l168 -299q6 -13 17 -13q8 0 17 13z" />
<glyph unicode="N" horiz-adv-x="466" d="M36 597l285 -585q7 -16 21 -11.5t14 25.5v646q0 18 -9.5 24.5t-19 -1t-9.5 -23.5v-573l-280 578q-8 16 -17 20.5t-15 -2t-6 -20.5v-649q0 -17 9 -23.5t18 0t9 23.5v571z" />
<glyph unicode="O" horiz-adv-x="489" d="M0 525v-350q0 -79 53.5 -127t139.5 -48q74 0 130 52t56 123v350q0 70 -55.5 122.5t-129.5 52.5q-83 0 -138.5 -48t-55.5 -127zM38 175v350q0 50 51.5 93.5t104.5 43.5q55 0 101 -42.5t46 -94.5v-350q0 -52 -46.5 -94.5t-101.5 -42.5q-53 0 -104 43.5t-51 93.5z" />
<glyph unicode="P" horiz-adv-x="460" d="M0 682v-660q0 -14 9.5 -20t19 0t9.5 20v324h137q71 0 123 49.5t52 119.5v10q0 71 -52 123t-123 52h-154q-21 0 -21 -18zM175 384h-137v278h137q51 0 94 -43t43 -94v-10q0 -53 -42 -92t-95 -39z" />
<glyph unicode="Q" horiz-adv-x="466" d="M286 34l21 -20q21 -17 34.5 -5.5t-4.5 29.5l-23 24q27 23 34.5 49t7.5 63v351q0 71 -52.5 123t-123.5 52q-72 0 -126 -52t-54 -123v-351q0 -73 54 -123.5t126 -50.5t106 34zM38 174v351q0 53 43.5 95t98.5 42q51 0 94.5 -42.5t43.5 -94.5v-351q0 -53 -31 -84l-48 51 q-11 11 -21.5 8t-12.5 -13t5 -19l47 -52q-37 -27 -77 -27q-55 0 -98.5 42t-43.5 94z" />
<glyph unicode="R" horiz-adv-x="468" d="M156 347l162 -335q5 -10 14.5 -11.5t13.5 2.5q19 9 7 33l-154 310q72 17 111.5 62.5t39.5 106.5v10q0 71 -52 123t-123 52h-154q-21 0 -21 -18v-656q0 -26 21 -26q7 0 12 8t5 18v321h118zM175 384h-137v278h137q51 0 94 -43t43 -94v-10q0 -53 -42 -92t-95 -39z" />
<glyph unicode="S" horiz-adv-x="462" d="M176 0q73 0 124.5 51.5t51.5 124.5q0 74 -41 121t-122 74q-78 25 -114.5 61.5t-36.5 89.5q0 57 40.5 97.5t97.5 40.5t97.5 -40.5t40.5 -97.5q0 -18 19 -18.5t19 18.5q0 73 -51.5 124.5t-124.5 51.5t-124.5 -51.5t-51.5 -124.5q0 -131 177 -187q73 -25 105 -62t32 -97 q0 -57 -40.5 -97.5t-97.5 -40.5t-97.5 40.5t-40.5 97.5q0 18 -19 18.5t-19 -18.5q0 -73 51.5 -124.5t124.5 -51.5z" />
<glyph unicode="T" horiz-adv-x="415" d="M168 662v-639q0 -15 9.5 -21t19 0t9.5 21v639h140q19 0 19 19t-19 19h-315q-14 0 -20.5 -9.5t-0.5 -19t21 -9.5h137z" />
<glyph unicode="U" horiz-adv-x="465" d="M0 680v-501q0 -73 53 -126t126 -53q75 0 125.5 52t50.5 127v501q0 12 -9.5 17.5t-19 0.5t-9.5 -18v-501q0 -54 -42.5 -97.5t-95.5 -43.5q-55 0 -98 43t-43 98v501q0 13 -9.5 18t-19 0t-9.5 -18z" />
<glyph unicode="V" horiz-adv-x="471" d="M8 670l165 -650q3 -13 8.5 -17.5t11 0t8.5 17.5l159 652q4 17 -4.5 25t-20 3.5t-14.5 -19.5l-135 -557l-137 556q-4 16 -15.5 20t-20.5 -5t-5 -25z" />
<glyph unicode="W" horiz-adv-x="655" d="M273 464l105 -441q5 -21 21 -20t19 19l126 650q3 15 -4.5 23t-17 4.5t-12.5 -17.5l-115 -575l-107 450q-3 13 -13.5 13t-13.5 -12l-111 -461l-114 585q-3 14 -12.5 17.5t-16.5 -4.5t-4 -23l129 -658q3 -14 15 -14t16 16z" />
<glyph unicode="X" horiz-adv-x="481" d="M208 349l161 -321q5 -10 -2 -19t-16.5 -8.5t-15.5 10.5l-148 295l-148 -295q-7 -12 -16.5 -11.5t-15.5 10t-2 18.5l160 321l-160 323q-8 16 9 25t25 -8l148 -295l148 295q4 11 14.5 11t17 -8.5t2.5 -19.5z" />
<glyph unicode="Y" horiz-adv-x="478" d="M184 394l148 295q4 11 14.5 11t17 -8.5t2.5 -19.5l-330 -661q-7 -10 -17 -10t-16 9t-1 18l160 321l-160 323q-8 16 9 25t25 -8z" />
<glyph unicode="Z" horiz-adv-x="479" d="M20 0h330q18 0 18.5 19t-18.5 19h-299l316 634q4 9 -1.5 18.5t-15.5 9.5h-330q-19 0 -19 -19t19 -19h299l-316 -634q-5 -11 1.5 -19.5t15.5 -8.5z" />
<glyph unicode="[" horiz-adv-x="285" d="M19 -67h158q18 0 18.5 19t-18.5 19h-139v762h139q18 0 18.5 19t-18.5 19h-158q-7 0 -13 -5.5t-6 -13.5v-800q0 -8 6 -13.5t13 -5.5z" />
<glyph unicode="\" horiz-adv-x="352" d="M0 624l225 -611q4 -11 14.5 -12.5t18 6t3.5 18.5l-226 611q-4 11 -14.5 12.5t-17.5 -6t-3 -18.5z" />
<glyph unicode="]" horiz-adv-x="286" d="M158 -29h-139q-18 0 -18.5 -19t18.5 -19h158q7 0 13 5.5t6 13.5v800q0 8 -6 13.5t-13 5.5h-158q-18 0 -18.5 -19t18.5 -19h139v-762z" />
<glyph unicode="_" horiz-adv-x="468" d="M24 0h329q16 0 22.5 9.5t0 19t-22.5 9.5h-329q-16 0 -22 -9.5t1 -19t21 -9.5z" />
<glyph unicode="a" horiz-adv-x="333" d="M149 486l94 -462q1 -8 -3 -14.5t-12 -8.5q-7 -1 -13.5 3t-8.5 12l-28 138h-106l-33 -138q-3 -15 -18 -15h-4q-19 5 -15 23l110 463q3 15 18 15q16 -2 19 -16zM129 394l-48 -202h89z" />
<glyph unicode="b" d="M19 1h95q58 0 98 42q41 43 41 100q0 40 -19.5 73t-51.5 52q27 17 42.5 45t15.5 61q0 52 -37 89.5t-89 37.5h-95q-19 0 -19 -19v-462q0 -8 5.5 -13.5t13.5 -5.5zM114 286h-76v177h76q36 0 62 -26t26 -63q0 -36 -26 -62t-62 -26zM114 39h-76v209h76q41 0 71 -31t30 -74 t-30 -73.5t-71 -30.5z" />
<glyph unicode="c" d="M0 374v-247q0 -53 37 -90t89 -37t89.5 37t37.5 90q0 7 -5.5 13t-13.5 6t-13.5 -5.5t-5.5 -13.5q0 -37 -26 -63t-63 -26t-62.5 26t-25.5 63v247q0 37 25.5 63t62.5 26t63 -26t26 -63q0 -8 5.5 -13.5t13.5 -5.5t13.5 5.5t5.5 13.5q0 52 -37.5 89.5t-89.5 37.5t-89 -37 t-37 -90z" />
<glyph unicode="d" horiz-adv-x="345" d="M19 0h110q52 0 89 37t37 90v247q0 53 -37 90t-89 37h-110q-8 0 -13.5 -5.5t-5.5 -13.5v-463q0 -8 5.5 -13.5t13.5 -5.5zM129 38h-91v425h91q37 0 62.5 -26t25.5 -63v-247q0 -37 -25.5 -63t-62.5 -26z" />
<glyph unicode="e" horiz-adv-x="364" d="M38 38h217q19 0 19 -19q0 -8 -5.5 -13.5t-13.5 -5.5h-236q-7 0 -13 6t-6 13v463q0 8 6 13.5t13 5.5h236q8 0 13.5 -5.5t5.5 -13.5q0 -19 -19 -19h-217v-202h131q8 0 13.5 -5.5t5.5 -13.5q0 -19 -19 -19h-131v-185z" />
<glyph unicode="f" horiz-adv-x="345" d="M19 501h217q8 0 13.5 -5.5t5.5 -13.5t-5.5 -13.5t-13.5 -5.5h-198v-202h134q8 0 13.5 -5.5t5.5 -13.5t-5.5 -13.5t-13.5 -5.5h-134v-204q0 -7 -6 -13t-13 -6q-8 0 -13.5 5.5t-5.5 13.5v463q0 8 5.5 13.5t13.5 5.5z" />
<glyph unicode="g" d="M127 204h107q8 0 13.5 -6t5.5 -13v-58q0 -53 -37.5 -90t-89.5 -37t-89 37.5t-37 89.5v249q0 52 37 88.5t89 36.5t89.5 -37.5t37.5 -89.5q0 -8 -5.5 -13.5t-13.5 -5.5t-13.5 5.5t-5.5 13.5q0 37 -26 63t-63 26q-36 0 -62 -26t-26 -63v-247q0 -37 26 -63t62 -26q37 0 63 26 t26 63v39h-88q-19 0 -19 19q0 8 5.5 13.5t13.5 5.5z" />
<glyph unicode="h" horiz-adv-x="346" d="M218 276v206q0 8 5.5 13.5t13.5 5.5q7 0 13 -5.5t6 -13.5v-463q0 -7 -6 -13t-13 -6q-8 0 -13.5 5.5t-5.5 13.5v219h-180v-219q0 -8 -5.5 -13.5t-13.5 -5.5q-7 0 -13 6t-6 13v463q0 8 6 13.5t13 5.5q8 0 13.5 -5.5t5.5 -13.5v-206h180z" />
<glyph unicode="i" horiz-adv-x="148" d="M0 482v-463q0 -8 5.5 -13.5t13.5 -5.5q7 0 13 6t6 13v463q0 8 -6 13.5t-13 5.5q-8 0 -13.5 -5.5t-5.5 -13.5z" />
<glyph unicode="j" d="M215 463v-336q0 -37 -25.5 -63t-62.5 -26t-63 26t-26 63q0 8 -5.5 13.5t-13.5 5.5q-7 0 -13 -6t-6 -13q0 -53 37 -90t90 -37q52 0 89 37.5t37 89.5v355q0 19 -19 19h-106q-8 0 -13.5 -5.5t-5.5 -13.5t5.5 -13.5t13.5 -5.5h87z" />
<glyph unicode="k" horiz-adv-x="359" d="M61 274h82q52 0 89 -37t37 -89v-127q0 -19 -19 -19q-8 0 -13.5 5.5t-5.5 13.5v127q0 37 -25.5 62.5t-62.5 25.5h-105v-217q0 -7 -6 -13t-13 -6q-8 0 -13.5 5.5t-5.5 13.5v463q0 8 5.5 13.5t13.5 5.5q7 0 13 -5.5t6 -13.5v-176l163 187q11 15 26 2t2 -27z" />
<glyph unicode="l" horiz-adv-x="346" d="M19 0h218q8 0 13.5 5.5t5.5 13.5q0 19 -19 19h-199v444q0 8 -5.5 13.5t-13.5 5.5q-7 0 -13 -5.5t-6 -13.5v-463q0 -7 6 -13t13 -6z" />
<glyph unicode="m" horiz-adv-x="425" d="M297 412v-393q0 -7 5.5 -13t13.5 -6t13.5 5.5t5.5 13.5v463q0 15 -14 18q-14 5 -21 -8l-132 -227l-133 227q-7 13 -21 8q-14 -3 -14 -18v-463q0 -8 5.5 -13.5t13.5 -5.5q7 0 13 6t6 13v393l113 -194q7 -10 17 -10q11 0 16 10z" />
<glyph unicode="n" d="M38 396l178 -385q6 -11 18 -11h2q1 1 2 1q15 4 15 18v463q0 8 -5.5 13.5t-13.5 5.5t-13.5 -5.5t-5.5 -13.5v-377l-179 385q-6 13 -21 11q-15 -3 -15 -19v-463q0 -8 5.5 -13.5t13.5 -5.5q7 0 13 6t6 13v377z" />
<glyph unicode="o" d="M0 374v-247q0 -52 37 -89.5t89 -37.5t89.5 37t37.5 90v247q0 52 -37.5 89.5t-89.5 37.5t-89 -37.5t-37 -89.5zM38 127v247q0 37 26 63t62 26q37 0 63 -26t26 -63v-247q0 -37 -26 -63t-63 -26q-36 0 -62 26t-26 63z" />
<glyph unicode="p" horiz-adv-x="342" d="M0 482v-462q0 -8 5.5 -13.5t13.5 -5.5q19 0 19 19v228h88q52 0 89 37t37 89q0 53 -37 90t-89 37h-107q-7 0 -13 -5.5t-6 -13.5zM126 286h-88v177h88q37 0 62.5 -26t25.5 -63q0 -36 -25.5 -62t-62.5 -26z" />
<glyph unicode="q" d="M0 127v247q0 52 37 89.5t89 37.5t89.5 -37.5t37.5 -89.5v-247q0 -45 -27 -78l14 -14q13 -14 0 -27q-6 -6 -13 -6q-8 0 -14 6l-15 15q-33 -23 -72 -23q-52 0 -89 37.5t-37 89.5zM171 50l-29 29q-14 14 0 27q13 13 27 0l30 -30q16 22 16 51v247q0 37 -26 63t-63 26 q-36 0 -62 -26t-26 -63v-247q0 -37 26 -63t62 -26q23 0 45 12z" />
<glyph unicode="r" horiz-adv-x="344" d="M141 249l111 -220q4 -7 1.5 -14.5t-9.5 -10.5q-3 -2 -9 -2q-11 0 -17 10l-119 236h-61v-228q0 -19 -19 -19q-8 0 -13.5 5.5t-5.5 13.5v462q0 8 6 13.5t13 5.5h107q52 0 89 -37.5t37 -89.5q0 -48 -32 -83.5t-79 -41.5zM126 463h-88v-177h88q36 0 62 26t26 62q0 37 -26 63 t-62 26z" />
<glyph unicode="s" d="M126 0q52 0 89.5 37t37.5 90q0 67 -56 105q-26 19 -65 37q-43 20 -53 30l-2 2q-39 25 -39 73q0 37 25.5 63t62.5 26t63 -26t26 -63q0 -8 5.5 -13.5t13.5 -5.5t13.5 5.5t5.5 13.5q0 52 -37.5 89.5t-89.5 37.5t-89 -37t-37 -90q0 -66 55 -104q22 -17 62 -36q17 -8 31 -16 t20 -12l5 -4l2 -1q40 -27 40 -74q0 -37 -26 -63t-63 -26t-62.5 26t-25.5 63q0 7 -6 13t-13 6q-8 0 -13.5 -5.5t-5.5 -13.5q0 -53 37 -90t89 -37z" />
<glyph unicode="t" horiz-adv-x="339" d="M19 502h221q8 0 13.5 -6t5.5 -13q0 -8 -5.5 -13.5t-13.5 -5.5h-92v-445q0 -8 -5.5 -13.5t-13.5 -5.5q-7 0 -13 6t-6 13v445h-91q-8 0 -13.5 5.5t-5.5 13.5q0 7 6 13t13 6z" />
<glyph unicode="u" d="M0 483v-356q0 -53 37 -90t90 -37q52 0 89 37t37 90v357q0 19 -19 19q-8 0 -13.5 -5.5t-5.5 -13.5v-357q0 -37 -25.5 -63t-62.5 -26t-63 26t-26 63v356q0 19 -19 19q-8 0 -13.5 -5.5t-5.5 -13.5z" />
<glyph unicode="v" horiz-adv-x="348" d="M3 480l110 -462q3 -15 18 -15h1q15 0 18 15l107 460q2 7 -2 13.5t-12 8.5q-17 5 -23 -14l-89 -381l-91 384q-5 18 -23 14q-19 -6 -14 -23z" />
<glyph unicode="w" horiz-adv-x="472" d="M192 297l69 -279q3 -15 18 -15h1q14 0 18 16l84 461q1 7 -3 13.5t-12 8.5q-7 1 -13.5 -3t-8.5 -12l-69 -374l-66 267q-3 15 -18 15q-14 0 -19 -15l-66 -267l-68 374q-2 8 -8.5 12t-13.5 3q-18 -3 -16 -22l85 -461q2 -16 18 -16t19 15z" />
<glyph unicode="x" horiz-adv-x="359" d="M267 473l-110 -221l110 -222q8 -18 -9 -25q-2 -2 -8 -2q-13 0 -17 10l-97 196l-97 -196q-4 -10 -17 -10q-6 0 -9 2q-7 3 -9.5 10.5t1.5 14.5l110 222l-110 221q-8 17 8 26q17 9 26 -9l97 -195l97 195q3 7 10.5 10t14.5 -1q16 -8 9 -26z" />
<glyph unicode="y" horiz-adv-x="358" d="M135 295l97 195q9 18 26 9q16 -9 8 -26l-228 -460q-4 -10 -17 -10q-5 0 -8 2q-17 7 -9 25l110 222l-110 221q-7 18 9 26q7 4 14.5 1t10.5 -10z" />
<glyph unicode="z" horiz-adv-x="357" d="M20 3h228q8 0 13.5 5.5t5.5 13.5t-5.5 13.5t-13.5 5.5h-198l215 432q4 9 -1 19q-7 9 -16 9h-228q-8 0 -13.5 -5.5t-5.5 -13.5q0 -19 19 -19h197l-214 -433q-5 -10 1 -18q4 -9 16 -9z" />
<glyph unicode="{" horiz-adv-x="308" d="M78 150v-84q0 -59 31 -105.5t83 -67.5q11 -4 19 3.5t6.5 18t-11.5 14.5q-39 14 -64.5 53t-25.5 84v84q0 64 -25.5 117.5t-69.5 82.5q44 29 69.5 83t25.5 118v83q0 46 25 83.5t65 53.5q11 4 11.5 15t-7.5 18.5t-18 2.5q-52 -20 -83 -67.5t-31 -105.5v-83q0 -65 -29.5 -116 t-76.5 -67q-14 -4 -14 -17.5t14 -18.5q47 -15 76.5 -66t29.5 -116z" />
<glyph unicode="|" horiz-adv-x="88" d="M0 822v-998q0 -19 19 -19.5t19 19.5v998q0 19 -19 19t-19 -19z" />
<glyph unicode="}" horiz-adv-x="308" d="M60 150v-84q0 -45 -25.5 -84t-64.5 -53q-10 -4 -11.5 -14.5t6.5 -18t19 -3.5q52 21 83 67.5t31 105.5v84q0 65 29.5 116t76.5 66q14 5 14 18.5t-14 17.5q-47 16 -76.5 67t-29.5 116v83q0 58 -31 105.5t-83 67.5q-10 5 -18 -2.5t-7.5 -18.5t11.5 -15q40 -16 65 -53.5 t25 -83.5v-83q0 -64 25.5 -118t69.5 -83q-44 -29 -69.5 -82.5t-25.5 -117.5z" />
<glyph unicode="&#xa5;" horiz-adv-x="498" d="M9 570h-2v5v5v-7h2v1v1h-2l2 5v-5q0 5 4 5q3 0 3 7v7q1 0 1 1q-1 0 -1 3v1v3v1v2l1 1v-1v1h-1q-2 2 -3 2h-3v2v-2l3 4l-3 -2v2h-1v1h1h-1v3v3l1 -3h-1v-3l1 3l3 3v-3v3h1h2h1h6v1h1v-1h2h1h3v1v-1l1 1v-1l2 1h1l3 -1v1v-1v1h1h3h6h1h1q15 -2 16 -4q1 0 7 -6q0 -1 1 -3 t1.5 -3.5t1 -4t0.5 -4.5v-7q-4 -8 -6 -13q-10 -4 -21 -4h-2h-2h-3h-1l-31 -1h-1zM30 613v-1h1v-2h-1h1h2q0 -2 -2 -2h2h-2l2 -2v-1q0 1 -2 1h-1h1h-1l1 -1h2v-2v-1h-2h2h1q0 -3 -1 -3v-12v-5v-2h4h8t6 0.5t3 0.5q2 2 2 7l2 2q1 2 1 4v1v3v1h3v3v-3v3h1v1h-1v2v-2v2h-3v-2h-3 v2l-1 1l-1 2h-2q-2 0 -3 1l-1 1l-1 2l1 -2h-1v2h-2h2h-2l2 -2h-2l-3 2l-4 1v-1v-2v2v-2v2h-1v-2l-3 2v1v3h-1v-3v3h-2v-3h2v-1h-2v1h-1zM82 589v2q0 13 12 17q2 0 5.5 1t4.5 1q16 0 22 -11q0 -2 1 -4.5t1 -3.5h-2q2 -2 2 -3v-1h-2h-4h-3h-5h-2h-1h-1l-5 1v-1h-1h-1l-2 1h2 h-2q0 1 -3 1l3 -1h-3h3h-3h3v-1h-3h3h-3h3v-3h-3h3h-3q3 0 3 -2q0 2 2 2v-2h1h-1q0 -1 1 -1h-1h1v1h1l3 -1v-1h2h1h-1v1h1h-1h-2l2 1v-1h1v-1h1v1v-1h2h-2h2v1h4l1 1h-1h1h2h5q0 -1 -1 -2l-3 1v-1h3h-3h-1l1 -5h-1v-1q-9 -3 -17 -3q-16 0 -21 11l-1 2v5zM98 599v-4h12h2 q0 6 -2 8h-5q-3 0 -7 -4zM174 582q0 -7 -15 -11h-5h-2l-12 2v-2h-2v2v-2v2v-2h-2v2l-1 -2v2v1v1v5q0 1 -3 1h3h-3h3v1h3q2 0 2 -1q3 -6 10 -6h2q7 0 7 5v1q-7 1 -16 3q-1 0 -2.5 1t-2.5 2t-2 1h2h4q-6 0 -7 3q-3 3 -3 7q0 2 6 8q2 2 12 2h10h1q3 0 3 -2h2l2 2h5v-9l-5 -1h-2 q-6 5 -9 5l-5 2q-7 -2 -7 -3q0 -2 12 -4l4 -3q6 0 7 -4q5 -2 5 -3q1 -1 1 -6zM230 599q1 -1 1 -5q0 -6 -1 -7h1q0 -4 -4 -7q-5 -7 -14 -7q-4 0 -12 2v-1v-7h5h2v-3v-1v-3h-7v-3v3l-24 -3v6v1v2l1 1q6 0 7 3v3q0 -2 3 -2l-3 2v1l-1 1h1v6v3l-1 15q-2 3 -7 3v1v2v3h1v2v-2v2 l3 -2v2v-2l1 2h6h8h3v-2v-3q7 5 9 5h2h3q12 0 17 -11zM206 582h2q4 0 7 5h-12v-3l-2 3v-3h2q2 -2 3 -2zM215 589v5q0 5 -2 5v3h-3h-4q-4 0 -7 -7v-1q0 -3 2 -5h-2q2 0 4 -1q0 -1 3 -1q5 0 9 2zM248 622h4h2q5 -3 5 -6v-3q-3 -5 -7 -5l-4 2q-4 0 -4 6q0 4 1 4zM238 571l-1 2 v1l-3 1v5v1h3v-1v1v1l1 -1h-1h1v1h2l-2 -1h3q3 0 3 6v1v7v3v1h1h-1h-3h-3q-1 0 -1 3l-3 -3v7h16h2h2h1h2v-1v-17h2v-4v-2q0 -1 2 -1l4 -1l-1 -9h-2h-10h-2h-2h-4h-3h-1h-2zM301 573v7h2q5 2 5 4v4q0 3 -2 6h2q0 5 -8 5q-7 0 -7 -5h1q-1 -3 -1 -7v-3q0 -4 1 -4h3v-7v-2h-4h-1 h-3h-2h-8h-3h-3h-2h-2v2v1h2h-2q0 1 2 1h-2v5h2h1l4 1q2 1 2 3v3q0 4 -2 7h2q0 5 -5 5h-2l-2 3v1v2l2 1l1 2h1h3h2h9h5v-2l1 -1h-1h1h-1v-2h1q7 7 13 7h2q5 0 10 -5q6 -6 6 -7h-4q4 0 4 -3v-1v-12q0 -1 3 -1l1 -1v-9h-15h-2h-1h-9v2zM383 598h-2l2 -3v-1l1 -5q0 -8 -8 -14 q-6 -4 -17 -4h-2h-1h-1h-3h-2q-18 3 -18 17q0 2 1 4l1 3h-2q0 4 4 10q12 5 21 5h2h1q4 0 8.5 -1t5.5 -1q1 -1 7 -5l2 -4v-1zM369 589h-2q0 2 -1 5l-2 1h2h-2v3h2q0 4 -6 5h-1h-2h-1q-3 0 -6 -4q-1 -1 -1 -4h3q-3 -1 -3 -6v-1v-1l1 -5q4 -2 7 -2q5 0 9 2l1 5q0 1 2 2z M432 606h2h12v-1v-2v-4h-3q-5 -1 -7 -4v-1l4 1v-1q0 -1 -3.5 -4.5t-4.5 -5.5q-4 -8 -12 -20q-6 -8 -15 -8t-13 4q-1 3 -1 6q0 5 4 5h2q7 0 8 -5v-2h1q6 0 7 7q-4 9 -7 10l-2 -1l18 14h1l-7 -5l6 -5q5 7 5 10v1v3l-2 1q-1 0 -9 -5h-1l10 8v1q0 -1 -2 -1v-3h-1h1h-1v3h1l-1 1 v3h7h3zM390 598h-2v1v3v3v1h4h28v-1v-6q-4 0 -5 -1v-3v-1v-3v-2q-6 -7 -10 -7h-1v-1v-1l-3 1l3 1l1 2l-1 3l-3 -3l3 -2h-3v2q0 3 3 3q-6 2 -9 7h2q-2 4 -7 4zM21 640l5 5h-5q6 2 6 9v1v3q0 24 -1 24t-2.5 1.5t-2.5 1.5h-8v9v2v3h14h3h1h2h1h4h3h28h1h2h1h3h3h1h13h1h3h1v-7 v-9v-1v-3v-1v-2v-1h-1h-10q-1 1 -1 4q-4 6 -13 6h-21h-3v-10l3 -4h2q11 0 11 5l1 3h3h1h9v-1v-2v-14v-1v-2v-1v-7h-13q-1 3 -1 4q0 4 -6 4h-4h-3v-1q0 -8 2 -11h1v-2h-6q6 -2 7 -2q3 -3 6 -3h1h2v-11h-16h-1h-1h-2h-3h-5h-3h-1h-2h-1h-3h-1h-2h-1h-2h-4h-1h-2h-1v11h8z M126 662q17 0 17 6q0 8 -11 8q-7 0 -10 -1l3 -6q0 -4 -7 -4q-13 0 -14 4v2q0 10 17 12h8q29 0 35 -14v-3v-12q0 -3 -3 -4h3v-3l-3 -2l3 -1v-1v-3l2 -2q1 0 1 6v1l1 2v7v1h5h1h3v-8v-2v-1v-1q0 -3 -1 -6t-1 -4q-1 0 -2 -3q-5 -1 -12 -1h-2q-13 0 -14 4l-2 3h2h1l-1 1l-2 -1 l-1 2v-1h-2q-1 0 -4.5 -3t-7.5 -5h-2h-8q-13 0 -17 9l-3 5v1l5 11q0 4 7 6q4 1 16 1zM143 659h-1q-8 -4 -16 -5q-1 -3 -1 -4q0 -3 1 -3v-2h-1v-1l4 -4h7v-2h2l-2 2v3l6 2h-2h-2v2v-2h-2q7 6 7 13v1zM175 699h2l19 -3h2h5h2v-7v-3v-1v-10q5 3 11 3q1 1 7 1h1q4 -1 8.5 -2.5 t7.5 -1.5q8 -11 8 -17v-3v-8q0 -6 -8 -14q-4 -6 -13 -7h-4h-1l-2 -3q0 3 -4 3q-10 3 -13 10l-2 -3l4 -6q-2 0 -2 2l-4 4v-3q0 -3 4 -3l2 -4l-2 -1q-2 0 -2 1l-16 24h-1l14 -18h-2h-14v4v11l2 1h-2l2 5v1v3l1 -4q3 0 3 -3h1l-11 19h3l1 -1v-3v-1l2 1v16q0 2 -1 4t-1 3l-3 1 h-4v3v10zM205 659v-4q0 -4 1 -8h-1q2 -9 10 -9h1q4 0 8 7v2h-1q1 3 1 8q0 11 -9 11q-8 0 -10 -7zM265 700h4h3h1q7 -1 7 -8q0 -9 -8 -9h-3q-8 2 -8 10q0 1 3 6zM248 638l2 2v3v-3h2v3h-2q0 1 2 1h2h-2v-1h2h-2h2q0 1 1 1q-1 0 -1 -4v3h1h4q3 0 3 8v3h-1v8h1h-1v3h1 q-1 0 -1 1h1v2h2v1l-2 -1l-1 1l-2 -1h-5q-1 0 -2 0.5t-2 0.5v10h19h2h1h1h5h2v-1v-24v-3v-4v-2q0 -1 2 -2t4 -3h7q0 -11 -1 -11h-3h-17h-1h-2h-4h-4h-2h-2h-3v1q-2 0 -4 3v3q0 1 -2 2zM262 666v-1v1zM294 644l-1 1v10v3q0 19 17 24q5 1 15 1q23 0 31 -15q1 -3 1 -10v-4v-3 v-1h-7h-2h-3h-6l-3 1v-1l-1 1v-1h-3v1v-1l-4 1h-1v-1h-2h-1h-4v1v3h-2l-1 1l1 -1h-1v-3h1h-1l1 -1q-1 0 -1 1h-2v-1h2h1h-1v-3h1h-1v-2h1l2 2h4q-4 0 -4 -2h4v-1q0 -1 1 -1h-1h-4q5 0 5 -3v3v1v-1l-1 1h1h2h2v-1v1v-1h-1h1v-3l3 -2h2h1v2h-1v3h-2v1v-1l-3 1h3v-1l2 1v-1 q1 0 1 -3h1h3v3h2l4 1h3h8h1q-1 0 -2 -4h-3h-2l2 -2h-2v2l-1 -2h1v-1h-1v-1q-5 -7 -24 -7q-23 0 -31 15zM317 668l-2 -3h2h15h4q0 2 -4 10h-5q-8 0 -10 -7zM434 662v-1v-16q5 -5 6 -5h3h1v-11h-22h-2h-4h-10q-1 0 -1 1h1h-1v10h1h5q1 2 1 3q1 1 1 2v6q0 8 -1 10h1q0 7 -8 8 h-1q-11 0 -13 -8h4q-4 -3 -4 -11v-5q0 -5 6 -5h4v-7v-3v-1h-9h-1h-1h-2h-3h-11h-5h-2h-8v1v3v3v1v1v2h1h4q5 0 7 3v4v3v9v2q0 7 -4 7l-7 1h-1v2v4v1v2v1l1 3v-3v3h4h3h2h2h13h1h6v-4v-2v-1q14 8 21 8h1h2q9 0 15 -5q4 -6 4 -10v-6zM6 67v-49l1 -3h2q3 2 3 3v20h11l4 1 q0 3 -4 3h-11v25q0 7 8 7q4 0 4 -7q3 -3 4 -3l2 3q0 5 -3.5 9t-6.5 4q-14 0 -14 -13zM30 31v-2q0 -5 4.5 -9.5t9.5 -4.5q3 0 7 4.5t4 9.5v21q0 5 -4 8.5t-7 3.5q-14 0 -14 -12q0 -4 5 -4q2 3 2 4q0 6 7 6q4 0 4 -6v-8h-4q-14 0 -14 -11zM37 29v2q0 7 7 7h4v-9q0 -7 -4 -7 q-7 0 -7 7zM61 77v-48q0 -14 12 -14q11 0 11 14v21q0 12 -11 12h-7v15l-3 3h-1q-1 -2 -1 -3zM66 29v27h7q6 0 6 -6v-21q0 -8 -6 -8q-7 0 -7 8zM96 77l-2 3q-4 0 -4 -3t4 -3q2 0 2 3zM90 62v-44q0 -3 4 -3q2 2 2 3v44l-2 1h-1zM125 49v1q0 5 -4 8.5t-9 3.5q-4 0 -7.5 -4 t-3.5 -8v-21q0 -14 11 -14q13 0 13 14l-1 2q-5 0 -5 -2q0 -7 -7 -7q-5 0 -5 7v6h5q13 0 13 14zM119 50v-1q0 -8 -7 -8h-5v9q0 6 5 6q7 0 7 -6zM132 60v-42l1 -3q3 0 3 3v38h7q7 0 7 -6v-32q0 -3 4 -3q2 2 2 3v32q0 12 -13 12h-8q-3 0 -3 -2zM160 50v-21q0 -14 13 -14 q5 0 9.5 4t4.5 10v48l-5 3h-1q-1 -2 -1 -3v-15h-7q-13 0 -13 -12zM173 56h7v-27q0 -8 -7 -8t-7 8v21q0 6 7 6zM215 49v1q0 12 -13 12q-11 0 -11 -12v-21q0 -14 11 -14q13 0 13 14q0 2 -3 2q-2 0 -2 -2q0 -7 -8 -7q-6 0 -6 7v6h6q13 0 13 14zM210 50v-1q0 -8 -8 -8h-6v9 q0 6 6 6q8 0 8 -6zM227 39l9 -5q2 0 2 -5q0 -7 -7 -7q-4 0 -4 7q0 3 -5 3q-2 -1 -2 -3q0 -5 4 -9.5t7 -4.5q5 0 9.5 4.5t4.5 9.5q0 9 -7 10l-8 6q-3 0 -3 5q0 6 4 6q7 0 7 -6q0 -4 6 -4q1 3 1 4q0 12 -14 12q-3 0 -7 -3.5t-4 -8.5q0 -8 7 -11zM251 50v-47l1 -3q3 0 3 3v14h7 q13 0 13 12v21q0 5 -4 8.5t-9 3.5q-11 0 -11 -12zM262 21h-7v29q0 6 7 6t7 -6v-21q0 -8 -7 -8zM286 77q0 3 -3 3q-4 0 -4 -3t4 -3q3 0 3 3zM279 62v-44q0 -3 4 -3q3 0 3 3v44q-1 1 -3 1zM292 60v-42q0 -3 1 -3q4 0 4 3v38h6q7 0 7 -6v-32q0 -3 4 -3q1 2 1 3v32q0 12 -12 12 h-10q-1 0 -1 -2zM322 50v-21q0 -14 10 -14q14 0 14 14v21q0 12 -14 12q-10 0 -10 -12zM327 29v21q0 6 5 6q9 0 9 -6v-21q0 -7 -9 -7q-5 0 -5 7zM370 60v-38h-7q-6 0 -6 7v31q0 2 -4 2q-3 0 -3 -2v-31q0 -5 4 -9.5t9 -4.5h7v-1q0 -8 -7 -8q-6 0 -6 8q0 1 -4 1q-3 0 -3 -1 q0 -6 4 -10t9 -4q11 0 11 14v46l-1 2q-3 0 -3 -2zM381 21q0 -6 6 -6q5 0 5 6q0 4 -5 4q-6 0 -6 -4zM398 67v-49q0 -3 4 -3q2 0 2 3v20h11l4 1q0 3 -4 3h-11v25q0 7 7 7t7 -7q1 -3 2 -3l5 3q0 13 -14 13q-13 0 -13 -13zM425 60v-42l1 -3q3 0 3 3v38h8q6 0 6 -6q0 -4 3 -4 q2 0 2 4q0 12 -11 12h-10q-2 0 -2 -2zM8 389v30h15v-30h-15zM8 269v15h15v-15h-15zM51 433h-15h-13h-15v105h15h13h15h16h15h14h16v-105h-16h-14h-15h-16zM36 524h-13v-76h13h15h16h15h14v76h-14h-15h-16h-15zM82 462h-15h-16h-15v46h15h16h15v-46zM67 358v-15h-16v15h16z M51 328h16v-14h-16v14zM36 181h15h16h15v-47h-15h-16h-15v47zM67 209h15h14h16v-104h-16h-14h-15h-16h-15h-13h-15v104h15h13h15h16zM82 119h14v74h-14h-15h-16h-15h-13v-74h13h15h16h15zM82 419h14h16h15v-16h-15h-16h-14v16zM82 389h14h16v-15h-16h-14h-15h-16v-16h-15v16 h-13v15h13h15v14h-15v16h15h16v-30h15zM82 358h14h16v-15h-16h-14v15zM112 269v-16h-16v-14h-14v14h-15v16h-16v-30h-15h-13v-15h-15v29h15v16h13v31h-13v14h-15v29h15v-15h13v-14h15v-14h16v-16h15v16h14h16v14h-16v14h16v15h15v15h15v16h-15v15h15h14h14h16v-15h-16v-16 h-14v-30h-14h-15v-14h15h14v-14h-14h-15v-16h-15h-16v-15h16zM112 224h-16v15h16v-15zM112 374h15v-16h-15v16zM127 239h-15v14h15v-14zM127 477v16h15h14v-16h-14h-15zM127 448h15v-15h14v-14h14v-16h-14h-14v16h-15v29zM127 253v31h15h14v-15h-14v-16h-15zM127 134v31h15 v-31h-15zM142 538v-14h14v-16h-14h-15v30h15zM156 253v-14h-14v14h14zM156 224v-15h-14v-28h-15v43h15h14zM142 181h14v-16h-14v16zM156 493v15h14v-15h-14zM170 433h-14v15h14v-15zM217 462v-14h-16v-29h-15v29h-16v45h16h15v-16h-15v-15h15h16zM217 374h-16v15h-15v14h15 v16h16v-16h15v30h14v15h-14v14h14v15h15v16h14v-16h16v16h14v-16h15v-74h16v16h15v-16h15h14v-14h-14h-15v-15h-15h-16v15h-15h-14v-31h-16v16h-14v-16h-15v31h15h14v14h-14v16h-15v-30h-14h-15v-15zM275 448h-14v-15h14v-14h16v-16h14v45h-14v14h-16v-14zM201 358v-30h16 v-14h-16h-15v-14h15v-16h-15v-15h-16v15h-14v16h14v14h-14v14h14v30h16h15zM246 477h-14v-15h-15v31h15h14v-16zM232 433h-15v15h15v-15zM217 119v15h15v-15h-15zM217 538h15h14v-14h-14h-15v-16h-16v16h-15v14h15h16zM217 358h15h14v-15h-14v-15h-15v30zM246 105h-14v14h14 v-14zM246 524h15v-31h-15v31zM261 119h-15v15h15v-15zM291 448v-15h-16v15h16zM291 165v-15h-16v-16h-14v47h14v-16h16zM305 538h15v-45h-15v31h-14v-16h-16v30h16h14zM320 358h-15v16h15v-16zM351 193h-15v16h15v-16zM366 374v-16h-15v16h15zM351 269v31h15h14v-16h-14v-15 h-15zM366 508h14h14h16v-46h-16h-14h-14v46zM380 419h14v-16h-14v16zM394 343h-14v31h14v-16h16v-15h-16zM394 374v15h16h15v-15h-15h-16zM380 328h14h16v15h15h16v-29h-16v-45h-15v-45h15h16v-15h-16v-16h-15v16h-16v-16h-14v-28h14v16h16v-16h15v-15h-15v-16h-16v-15h-14 h-14v-14h-15h-15h-16h-15h-14v14h-16v15h16v16h14v-16h15v16h-15v43h-14h-16v31h-14v-15h-15v-28h-14h-15h-16v-16h16v-31h-16v16h-15v-45h-16v14h-14v-14h-14h-15v14h15v15h14h14v16h-14v15h14h16v28h15h16v16h15v15h14v15h15v14h-15h-14v-29h-15h-16v-15h-15v-16h-16v-12 h-14v28h14v15h16v29h15v16h16v45h15v-14h14v14h-14v14h14v15h15v15h14v-30h-14v-44h14v-45h16v-30h14v75h-14v30h-16v14h16v30h14v-44h15v14h16v15h15v-15h15v-14h-15h-15v-30h-16v-31h16v-14h15v14h15v-14h14h14v14h-14v16h14v15h16v30h-16h-14v14zM232 269h14v15h-14v-15z M336 119h15v46h-15v-46zM336 181h15h15v43h-15h-15h-16v-43h16zM366 134h14v16h-14v-16zM410 403v16h15h16v-30h-16v14h-15zM425 105h-15v29h15v-29zM410 538h15h16v-105h-16h-15h-16h-14h-14h-15h-15v105h15h15h14h14h16zM410 448h15v76h-15h-16h-14h-14h-15v-76h15h14h14 h16zM441 374v-16h-16v16h16zM425 181h16v-16h-16v16zM441 150v-16h-16v16h16z" />
<glyph unicode="&#xab;" horiz-adv-x="468" d="M159 421l188 -147q11 -8 20.5 -3t10 15t-7.5 18l-168 131l168 122q9 7 7 18t-10.5 15t-18.5 -2l-189 -137q-9 -7 -8 -16.5t8 -13.5zM7 421l189 -147q13 -13 25 2.5t-2 27.5l-168 131l168 122q9 7 7 17.5t-10.5 14.5t-19.5 -1l-188 -137q-8 -6 -7 -15.5t6 -14.5z" />
<glyph unicode="&#xae;" horiz-adv-x="350" d="M300 527q0 -63 -43.5 -107t-108.5 -44q-62 0 -105 44.5t-43 108.5q0 61 45 104t105 43q62 0 106 -43.5t44 -105.5zM150 414q46 0 79 33.5t33 78.5q0 46 -33 79t-79 33q-45 0 -78.5 -33t-33.5 -79t34 -79t78 -33zM120 620h38q21 0 36 -17t15 -38q0 -40 -30 -49l27 -58 q6 -13 -7.5 -20.5t-20.5 6.5l-33 64h-9v-60q0 -10 -8 -14.5t-16 0t-8 14.5v156q0 16 16 16zM158 588h-22v-48h22q19 0 19 25q0 9 -6 16t-13 7z" />
<glyph unicode="&#xb0;" horiz-adv-x="350" d="M0 643v3q0 56 45 104t107 48q61 0 104.5 -49t43.5 -108q0 -57 -41 -100t-108 -43q-63 0 -107 41t-44 104zM152 536q46 0 78 31t32 76q0 46 -32.5 81.5t-77.5 35.5t-79.5 -35.5t-34.5 -81.5q0 -45 34.5 -76t79.5 -31z" />
<glyph unicode="&#xbb;" horiz-adv-x="467" d="M176 435l-168 -131q-9 -7 -7.5 -18t10 -15t20.5 3l188 147q7 4 8 13.5t-8 16.5l-189 137q-9 7 -18.5 1.5t-10.5 -15t7 -17.5zM327 435l-168 -131q-14 -12 -2 -27.5t25 -2.5l189 147q5 5 6 14.5t-7 15.5l-188 137q-10 7 -19.5 1.5t-10.5 -15t7 -17.5z" />
<glyph unicode="&#xbf;" horiz-adv-x="442" d="M194 677q0 10 -6.5 16.5t-15.5 6.5t-16 -6.5t-7 -16.5q0 -8 7 -15t16 -7t15.5 7t6.5 15zM193 473v99q0 19 -19 19t-19 -19v-99q0 -55 -36 -93l-84 -92q-35 -39 -35 -111q0 -73 51.5 -125t124.5 -52t124.5 52t51.5 125q0 18 -19 18.5t-19 -18.5q0 -58 -40.5 -98.5 t-97.5 -40.5t-97.5 40.5t-40.5 98.5q0 57 25 85l84 92q46 49 46 119z" />
<glyph unicode="&#xc0;" horiz-adv-x="447" d="M156 667l-153 -639q0 -1 -1 -4.5t-1.5 -4.5t-1 -4t0 -4t0.5 -3.5t1 -3.5t3 -2l4 -2q25 -5 30 15l55 212h158l49 -208q6 -23 25 -19q16 4 10 29l-143 657q0 4 -88 108q-5 6 -13 6.5t-15 -5.5q-7 -8 -6 -15t5 -11zM242 265h-141l75 318z" />
<glyph unicode="&#xc7;" horiz-adv-x="470" d="M38 525v-351q0 -52 42 -94t95 -42q55 0 101 42t46 94q0 27 16 27q8 0 14.5 -7.5t6.5 -19.5q0 -69 -56.5 -122t-127.5 -53h-7l-11 -25q20 -4 33.5 -18t13.5 -35q0 -57 -76 -57q-26 0 -44 7.5t-13 20.5q7 13 14 14.5t20 -4t23 -5.5q34 0 34 24q0 15 -27 24t-22 24l16 36 q-56 16 -92.5 63.5t-36.5 105.5v351q0 71 52 123.5t123 52.5q75 0 130 -54t55 -128q0 -21 -17 -21q-13 0 -17 27q-13 60 -55 99t-96 39q-52 0 -94.5 -42.5t-42.5 -95.5z" />
<glyph unicode="&#xc8;" horiz-adv-x="495" d="M0 682v-661q0 -21 21 -21h341q14 0 20 9.5t0 19t-20 9.5h-324v301h232q14 0 20 9.5t0 19t-20 9.5h-232v285h324q15 0 20 9.5t-1.5 19t-18.5 9.5h-162l-90 94q-12 12 -22 1q-8 -9 5 -22l69 -73h-141q-21 0 -21 -18z" />
<glyph unicode="&#xc9;" horiz-adv-x="471" d="M0 682v-661q0 -21 21 -21h317q14 0 20 9.5t0 19t-20 9.5h-300v287h209q14 0 19.5 9.5t0 19t-19.5 9.5h-209v299h300q15 0 20 9.5t-1.5 19t-18.5 9.5h-134l66 70q8 8 5 18t-11.5 12.5t-17.5 -4.5l-88 -96h-137q-21 0 -21 -18z" />
<glyph unicode="&#xca;" horiz-adv-x="495" d="M204 792l52 -55q14 -15 4 -25q-12 -12 -24 1l-45 47l-44 -47q-11 -12 -22 -1q-11 12 2 25l52 55q13 12 25 0zM0 682v-661q0 -21 21 -21h341q14 0 20 9.5t0 19t-20 9.5h-324v289h208q24 0 22.5 19t-22.5 19h-208v297h324q15 0 20 9.5t-1.5 19t-18.5 9.5h-341 q-21 0 -21 -18z" />
<glyph unicode="&#xcb;" horiz-adv-x="493" d="M103 770q0 -9 9 -17t20 -8q21 0 21 25t-21 25q-11 0 -20 -8t-9 -17zM194 770q0 -25 16 -25q14 0 24 8t10 17t-10 17t-24 8q-16 0 -16 -25zM0 682v-661q0 -21 21 -21h336q17 0 23.5 9.5t0 19t-23.5 9.5h-319v288h203q27 0 25.5 19t-25.5 19h-203v298h319q27 0 25.5 19 t-25.5 19h-336q-21 0 -21 -18z" />
<glyph unicode="&#xe0;" horiz-adv-x="332" d="M79 570l64 -76q3 -3 4 -8l94 -463q2 -8 -2.5 -15t-12.5 -8q-7 -1 -13.5 3t-8.5 12l-28 139h-106l-33 -139q-3 -15 -18 -15q-3 0 -4 1q-8 1 -12 7.5t-2 14.5l106 454l-57 68q-13 14 2 27q14 13 27 -2zM127 393l-48 -201h89z" />
<glyph unicode="&#xe7;" horiz-adv-x="341" d="M38 374v-248q0 -35 26 -61.5t61 -26.5q37 0 62.5 25.5t25.5 62.5q0 9 6 15t15 6q6 0 11.5 -6t5.5 -15q0 -56 -37.5 -91t-95.5 -35l-11 -28q20 -4 34 -18t14 -35q0 -30 -26 -46.5t-53.5 -14t-45.5 10.5q-10 7 -11 16.5t6.5 15.5t16.5 2q74 -26 74 16q0 9 -16.5 16 t-30.5 14t-8 18l20 42q-36 14 -58.5 46.5t-22.5 70.5v248q0 52 37 89t88 37q57 0 91.5 -35.5t34.5 -90.5q0 -18 -19 -17.5t-19 17.5q0 38 -25 63t-63 25q-37 0 -62 -25.5t-25 -62.5z" />
<glyph unicode="&#xe8;" horiz-adv-x="364" d="M65 658l91 -92q11 -10 21.5 -6t12.5 14t-5 19l-93 92q-14 13 -27 0t0 -27zM38 38h217q19 0 19 -19q0 -8 -5.5 -13.5t-13.5 -5.5h-236q-7 0 -13 6t-6 13v463q0 8 6 13.5t13 5.5h236q8 0 13.5 -5.5t5.5 -13.5q0 -19 -19 -19h-217v-202h131q8 0 13.5 -5.5t5.5 -13.5 q0 -19 -19 -19h-131v-185z" />
<glyph unicode="&#xe9;" horiz-adv-x="364" d="M80 565l91 92q10 10 6 20.5t-14 12.5t-19 -5l-91 -93q-9 -8 -5 -18.5t13 -13t19 4.5zM38 38h217q19 0 19 -19q0 -8 -5.5 -13.5t-13.5 -5.5h-236q-7 0 -13 6t-6 13v463q0 8 6 13.5t13 5.5h236q8 0 13.5 -5.5t5.5 -13.5q0 -19 -19 -19h-217v-202h131q8 0 13.5 -5.5 t5.5 -13.5q0 -19 -19 -19h-131v-185z" />
<glyph unicode="&#xea;" horiz-adv-x="364" d="M126 651l35 -34q15 -15 28 -1q14 14 -1 27l-48 49q-16 12 -31 -3l-46 -47q-14 -15 -1 -27q13 -14 27 0zM38 38h217q19 0 19 -19q0 -8 -5.5 -13.5t-13.5 -5.5h-236q-7 0 -13 6t-6 13v463q0 8 6 13.5t13 5.5h236q8 0 13.5 -5.5t5.5 -13.5q0 -19 -19 -19h-217v-202h131 q8 0 13.5 -5.5t5.5 -13.5q0 -19 -19 -19h-131v-185z" />
<glyph unicode="&#xeb;" horiz-adv-x="364" d="M75 635q8 0 13.5 5.5t5.5 14.5q0 8 -6 14t-14 6q-9 0 -14.5 -6t-5.5 -14q0 -9 6 -14.5t15 -5.5zM164 635q8 0 13.5 5.5t5.5 14.5q0 8 -6.5 14t-13.5 6q-20 0 -20 -20q0 -9 6 -14.5t15 -5.5zM38 38h217q19 0 19 -19q0 -8 -5.5 -13.5t-13.5 -5.5h-236q-7 0 -13 6t-6 13v463 q0 8 6 13.5t13 5.5h236q8 0 13.5 -5.5t5.5 -13.5q0 -19 -19 -19h-217v-202h131q8 0 13.5 -5.5t5.5 -13.5q0 -19 -19 -19h-131v-185z" />
<glyph unicode="&#xee;" horiz-adv-x="148" d="M0 482v-463q0 -8 5.5 -13.5t13.5 -5.5q7 0 13 6t6 13v463q0 8 -6 13.5t-13 5.5q-8 0 -13.5 -5.5t-5.5 -13.5z" />
<glyph unicode="&#xef;" horiz-adv-x="148" d="M0 482v-463q0 -8 5.5 -13.5t13.5 -5.5q7 0 13 6t6 13v463q0 8 -6 13.5t-13 5.5q-8 0 -13.5 -5.5t-5.5 -13.5z" />
<glyph unicode="&#x152;" horiz-adv-x="801" d="M313 73v-47q0 -26 20 -26h335q14 0 20 9.5t0 19t-20 9.5h-317v300h226q15 0 20 9.5t-1 19t-19 9.5h-226v286h317q15 0 20 9.5t-1.5 19t-18.5 9.5h-335q-20 0 -20 -23v-33q-27 27 -65 41.5t-73 14.5q-72 0 -123.5 -53t-51.5 -122v-350q0 -71 52 -123t123 -52q36 0 79 20.5 t59 52.5zM38 175v350q0 51 42.5 94t94.5 43q54 0 96 -42.5t42 -94.5v-350q0 -53 -42 -95t-96 -42q-52 0 -94.5 42.5t-42.5 94.5z" />
<glyph unicode="&#x153;" horiz-adv-x="578" d="M252 38h217q8 0 13.5 -5.5t5.5 -13.5t-5.5 -13.5t-13.5 -5.5h-236q-7 0 -13 6t-6 13v17q-38 -36 -88 -36q-52 0 -89 37t-37 89v248q0 52 37 89t89 37q51 0 88 -35v16q0 8 5.5 13.5t13.5 5.5h236q19 0 19 -19q0 -8 -5.5 -13.5t-13.5 -5.5h-217v-202h131q19 0 19 -19 q0 -8 -5.5 -13.5t-13.5 -5.5h-131v-184zM38 374v-248q0 -36 26 -62t62 -26q34 0 59 22t29 55v270q-4 33 -29 55t-59 22q-36 0 -62 -25.5t-26 -62.5z" />
<glyph unicode="&#x2018;" horiz-adv-x="183" d="M57 625l-56 -141q-4 -11 3 -19t17.5 -7t14.5 12l56 141q4 11 -3 19t-17.5 7t-14.5 -12z" />
<glyph unicode="&#x2019;" horiz-adv-x="183" d="M57 625l-56 -141q-4 -11 3 -19t17.5 -7t14.5 12l56 141q4 11 -3 19t-17.5 7t-14.5 -12z" />
<glyph unicode="&#x201c;" horiz-adv-x="268" d="M57 625l-56 -141q-4 -11 3 -19t17.5 -7t14.5 12l56 141q4 11 -3 19t-17.5 7t-14.5 -12zM142 625l-56 -141q-2 -5 -1.5 -9.5t3 -8t5.5 -6t7 -3t8 0.5t7.5 4t5.5 8l56 141q4 11 -3 19t-17.5 7t-14.5 -12z" />
<glyph unicode="&#x201d;" horiz-adv-x="268" d="M57 625l-56 -141q-4 -11 3 -19t17.5 -7t14.5 12l56 141q4 11 -3 19t-17.5 7t-14.5 -12zM142 625l-56 -141q-2 -5 -1.5 -9.5t3 -8t5.5 -6t7 -3t8 0.5t7.5 4t5.5 8l56 141q4 11 -3 19t-17.5 7t-14.5 -12z" />
<glyph unicode="&#x2022;" horiz-adv-x="220" d="M65 0q-27 0 -46 19t-19 46t19 46t46 19t46 -19t19 -46t-19 -46t-46 -19z" />
<glyph unicode="&#x2026;" horiz-adv-x="262" d="M-1 19q0 -7 5.5 -12.5t12.5 -5.5q9 0 15.5 5.5t6.5 12.5q0 10 -6.5 16t-15.5 6q-7 0 -12.5 -6.5t-5.5 -15.5zM65 19q0 -7 5.5 -12.5t12.5 -5.5q9 0 15.5 5.5t6.5 12.5q0 22 -22 22q-7 0 -12.5 -6.5t-5.5 -15.5zM132 19q0 -7 5.5 -12.5t12.5 -5.5q9 0 15.5 5.5t6.5 12.5 q0 10 -6.5 16t-15.5 6q-7 0 -12.5 -6.5t-5.5 -15.5z" />
<glyph unicode="&#x20ac;" horiz-adv-x="439" d="M75 288v-112q0 -57 40.5 -97.5t97.5 -40.5t97.5 40.5t40.5 97.5q0 19 19 19t19 -19q0 -73 -51.5 -124.5t-124.5 -51.5t-124.5 51.5t-51.5 124.5v112h-56q-18 0 -18.5 19t18.5 19h56v42h-56q-18 0 -18.5 19t18.5 19h56v116q0 73 51.5 124.5t124.5 51.5t124.5 -51.5 t51.5 -124.5q0 -18 -19 -18.5t-19 18.5q0 57 -40.5 97.5t-97.5 40.5t-97.5 -40.5t-40.5 -97.5v-116h176q19 0 19 -19t-19 -19h-176v-42h176q19 0 19 -19t-19 -19h-176z" />
<glyph unicode="&#x2212;" horiz-adv-x="417" d="M22 188h322q15 0 20.5 9.5t-0.5 19t-20 9.5h-322q-14 0 -19.5 -9.5t0 -19t19.5 -9.5z" />
<glyph unicode="&#x2260;" horiz-adv-x="424" d="M178 38h177q19 0 19 -19t-19 -19h-193l-22 -54q-8 -17 -25 -9.5t-10 24.5l16 39h-102q-18 0 -18.5 19t18.5 19h118l59 142h-177q-18 0 -18.5 19t18.5 19h193l22 53q4 11 14.5 12t17.5 -7t3 -19l-16 -39h102q19 0 19 -19t-19 -19h-118z" />
<glyph unicode="&#x2264;" horiz-adv-x="322" d="M241 107l-228 180q-18 14 0 30l228 180q10 8 20 3t11 -15t-8 -18l-208 -165l208 -166q10 -8 8 -18.5t-11 -13.5t-20 3zM248 38h-223q-16 0 -22.5 -9.5t0 -19t22.5 -9.5h223q15 0 21.5 9.5t0.5 19t-22 9.5z" />
<glyph unicode="&#x2265;" horiz-adv-x="322" d="M31 497l228 -180q18 -16 0 -30l-228 -180q-10 -8 -20 -3.5t-11 14t8 18.5l208 166l-208 165q-9 7 -7.5 18t10.5 14.5t20 -2.5zM24 0h223q16 0 22.5 9.5t0 19t-22.5 9.5h-223q-16 0 -22 -9.5t0.5 -19t21.5 -9.5z" />
<glyph unicode="&#x25fc;" horiz-adv-x="500" d="M0 500h500v-500h-500v500z" />
<glyph d="M0 374v-247q0 -53 37 -90t90 -37q52 0 89 37.5t37 89.5v247q0 52 -37 89.5t-89 37.5q-53 0 -90 -37.5t-37 -89.5zM38 127v247q0 37 26 63t63 26t62.5 -26t25.5 -63v-247q0 -37 -25.5 -63t-62.5 -26t-63 26t-26 63z" />
<glyph horiz-adv-x="206" d="M78 431v-412q0 -8 5.5 -13.5t13.5 -5.5q7 0 13 6t6 13v463q0 13 -13 18q-12 5 -21 -5l-79 -94q-13 -14 2 -27q14 -13 27 2z" />
<glyph horiz-adv-x="357" d="M20 1h228q8 0 13.5 5.5t5.5 13.5q0 19 -19 19h-192l180 265v1q21 30 21 69q0 53 -37 90t-89 37q-53 0 -90 -37.5t-37 -89.5q0 -8 6 -13.5t13 -5.5q8 0 13.5 5.5t5.5 13.5q0 37 26 63t63 26t62.5 -26t25.5 -63q0 -26 -14 -48l-201 -295q-6 -9 -1 -20q5 -10 17 -10z" />
<glyph d="M127 248h-28q-19 0 -19 19q0 8 5.5 13.5t13.5 5.5h28q37 0 62.5 26t25.5 62q0 37 -25.5 63t-62.5 26t-63 -26t-26 -63q0 -8 -5.5 -13.5t-13.5 -5.5q-7 0 -13 5.5t-6 13.5q0 52 37 89.5t90 37.5q52 0 89 -37t37 -90q0 -70 -60 -107q60 -37 60 -108v-32q0 -53 -37 -90 t-89 -37q-53 0 -90 37t-37 90q0 7 6 13t13 6q8 0 13.5 -5.5t5.5 -13.5q0 -37 26 -63t63 -26t62.5 26t25.5 63v32q0 37 -25.5 63t-62.5 26z" />
<glyph horiz-adv-x="385" d="M224 161h52q8 0 13.5 -5.5t5.5 -13.5t-5.5 -13.5t-13.5 -5.5h-52v-104q0 -8 -5.5 -13.5t-13.5 -5.5q-7 0 -13 6t-6 13v104h-162q-11 0 -16.5 8.5t-0.5 18.5l151 342q3 7 10 10t15 -1q17 -7 10 -25l-140 -315h133v90q0 7 6 13t13 6q8 0 13.5 -5.5t5.5 -13.5v-90z" />
<glyph d="M215 194v-67q0 -37 -26 -63t-63 -26q-36 0 -62 26t-26 63q0 7 -6 13t-13 6q-8 0 -13.5 -5.5t-5.5 -13.5q0 -52 37 -89.5t89 -37.5t89.5 37t37.5 90v67q0 52 -37 89t-90 37h-63l17 144h134q19 0 19 19q0 8 -5.5 13.5t-13.5 5.5h-151q-17 0 -19 -17l-21 -182q-1 -7 5 -14 q5 -7 14 -7h84q37 0 63 -25.5t26 -62.5z" />
<glyph d="M190 474l-93 -157q12 4 29 4q52 0 89.5 -37.5t37.5 -89.5v-67q0 -53 -37.5 -90t-89.5 -37t-89 37t-37 90v67q0 36 25 77l132 223q11 16 26 6q16 -9 7 -26zM38 194v-67q0 -37 25.5 -63t62.5 -26t63 26t26 63v67q0 37 -26 63t-63 26t-62.5 -26t-25.5 -63z" />
<glyph horiz-adv-x="359" d="M219 463l-214 -433q-4 -7 -1.5 -14.5t9.5 -10.5q3 -2 9 -2q11 0 17 10l228 460q4 9 -1 19q-7 9 -16 9h-228q-8 0 -13.5 -5.5t-5.5 -13.5q0 -19 19 -19h197z" />
<glyph d="M0 127v34q0 70 60 107q-60 38 -60 108q0 52 37.5 89t89.5 37t89 -37t37 -89q0 -70 -60 -108q60 -37 60 -107v-34q0 -52 -37 -89.5t-89 -37.5q-53 0 -90 37t-37 90zM38 376q0 -37 26 -63t63 -26q36 0 62 26t26 63t-26 62.5t-62 25.5q-37 0 -63 -25.5t-26 -62.5zM38 161 v-34q0 -37 26 -63t63 -26q36 0 62 26t26 63v34q0 37 -26 62.5t-62 25.5q-37 0 -63 -25.5t-26 -62.5z" />
<glyph d="M0 309v67q0 52 37 89.5t90 37.5q52 0 89 -37t37 -90v-67q0 -33 -25 -77l-132 -223q-6 -9 -17 -9q-5 0 -9 3q-16 9 -7 26l93 157q-13 -4 -29 -4q-53 0 -90 37t-37 90zM38 376v-67q0 -37 26 -63t63 -26t62.5 26t25.5 63v67q0 37 -25.5 63t-62.5 26t-63 -26t-26 -63z" />
<glyph horiz-adv-x="232" d="M0 634v-568q0 -59 31 -105.5t83 -67.5q11 -4 20 2.5t8 17.5t-14 16q-40 16 -65 54t-25 83v568q0 46 25 83.5t65 53.5q11 4 11.5 15t-7.5 18.5t-18 2.5q-52 -20 -83 -67.5t-31 -105.5z" />
<glyph horiz-adv-x="232" d="M104 634v-568q0 -45 -25 -83t-65 -54q-13 -5 -14 -16t8 -17.5t20 -2.5q52 21 83 67.5t31 105.5v568q0 58 -31 105.5t-83 67.5q-10 5 -18 -2.5t-7.5 -18.5t11.5 -15q40 -16 65 -53.5t25 -83.5z" />
<glyph horiz-adv-x="304" d="M144 589v-89q47 -7 78.5 -42.5t31.5 -83.5q0 -18 -17.5 -18t-17.5 18q0 38 -27 65t-65 27t-65 -27t-27 -65q0 -36 23 -58t80 -53q63 -32 89.5 -60.5t26.5 -81.5q0 -48 -31.5 -83.5t-78.5 -42.5v-82q0 -17 -17 -17t-17 17v82q-47 7 -78.5 42.5t-31.5 83.5q0 18 17.5 18 t17.5 -18q0 -38 27 -65t65 -27t65 27t27 65q0 41 -19.5 60.5t-74.5 48.5q-43 24 -65.5 39.5t-41 43t-18.5 61.5q0 48 31.5 83.5t78.5 42.5v89q0 12 8.5 16t17 -1t8.5 -15z" />
<glyph horiz-adv-x="329" d="M59 200v-73q0 -38 27 -65t65 -27t65.5 27t27.5 65q0 18 17.5 18t17.5 -18q0 -52 -37.5 -89.5t-90.5 -37.5t-90 37t-37 90v73h-41q-12 0 -16 8.5t1 17t15 8.5h41v17h-41q-12 0 -16 8.5t1 17t15 8.5h41v88q0 53 37 90t90 37t90.5 -37.5t37.5 -89.5q0 -18 -17.5 -18 t-17.5 18q0 38 -27.5 65t-65.5 27t-65 -27t-27 -65v-88h115q18 0 18 -17t-18 -17h-115v-17h115q18 0 18 -17t-18 -17h-115z" />
<glyph horiz-adv-x="498" d="M9 570h-2v5v5v-7h2v1v1h-2l2 5v-5q0 5 4 5q3 0 3 7v7q1 0 1 1q-1 0 -1 3v1v3v1v2l1 1v-1v1h-1q-2 2 -3 2h-3v2v-2l3 4l-3 -2v2h-1v1h1h-1v3v3l1 -3h-1v-3l1 3l3 3v-3v3h1h2h1h6v1h1v-1h2h1h3v1v-1l1 1v-1l2 1h1l3 -1v1v-1v1h1h3h6h1h1q15 -2 16 -4q1 0 7 -6q0 -1 1 -3 t1.5 -3.5t1 -4t0.5 -4.5v-7q-4 -8 -6 -13q-10 -4 -21 -4h-2h-2h-3h-1l-31 -1h-1zM30 613v-1h1v-2h-1h1h2q0 -2 -2 -2h2h-2l2 -2v-1q0 1 -2 1h-1h1h-1l1 -1h2v-2v-1h-2h2h1q0 -3 -1 -3v-12v-5v-2h4h8t6 0.5t3 0.5q2 2 2 7l2 2q1 2 1 4v1v3v1h3v3v-3v3h1v1h-1v2v-2v2h-3v-2h-3 v2l-1 1l-1 2h-2q-2 0 -3 1l-1 1l-1 2l1 -2h-1v2h-2h2h-2l2 -2h-2l-3 2l-4 1v-1v-2v2v-2v2h-1v-2l-3 2v1v3h-1v-3v3h-2v-3h2v-1h-2v1h-1zM82 589v2q0 13 12 17q2 0 5.5 1t4.5 1q16 0 22 -11q0 -2 1 -4.5t1 -3.5h-2q2 -2 2 -3v-1h-2h-4h-3h-5h-2h-1h-1l-5 1v-1h-1h-1l-2 1h2 h-2q0 1 -3 1l3 -1h-3h3h-3h3v-1h-3h3h-3h3v-3h-3h3h-3q3 0 3 -2q0 2 2 2v-2h1h-1q0 -1 1 -1h-1h1v1h1l3 -1v-1h2h1h-1v1h1h-1h-2l2 1v-1h1v-1h1v1v-1h2h-2h2v1h4l1 1h-1h1h2h5q0 -1 -1 -2l-3 1v-1h3h-3h-1l1 -5h-1v-1q-9 -3 -17 -3q-16 0 -21 11l-1 2v5zM98 599v-4h12h2 q0 6 -2 8h-5q-3 0 -7 -4zM174 582q0 -7 -15 -11h-5h-2l-12 2v-2h-2v2v-2v2v-2h-2v2l-1 -2v2v1v1v5q0 1 -3 1h3h-3h3v1h3q2 0 2 -1q3 -6 10 -6h2q7 0 7 5v1q-7 1 -16 3q-1 0 -2.5 1t-2.5 2t-2 1h2h4q-6 0 -7 3q-3 3 -3 7q0 2 6 8q2 2 12 2h10h1q3 0 3 -2h2l2 2h5v-9l-5 -1h-2 q-6 5 -9 5l-5 2q-7 -2 -7 -3q0 -2 12 -4l4 -3q6 0 7 -4q5 -2 5 -3q1 -1 1 -6zM230 599q1 -1 1 -5q0 -6 -1 -7h1q0 -4 -4 -7q-5 -7 -14 -7q-4 0 -12 2v-1v-7h5h2v-3v-1v-3h-7v-3v3l-24 -3v6v1v2l1 1q6 0 7 3v3q0 -2 3 -2l-3 2v1l-1 1h1v6v3l-1 15q-2 3 -7 3v1v2v3h1v2v-2v2 l3 -2v2v-2l1 2h6h8h3v-2v-3q7 5 9 5h2h3q12 0 17 -11zM206 582h2q4 0 7 5h-12v-3l-2 3v-3h2q2 -2 3 -2zM215 589v5q0 5 -2 5v3h-3h-4q-4 0 -7 -7v-1q0 -3 2 -5h-2q2 0 4 -1q0 -1 3 -1q5 0 9 2zM248 622h4h2q5 -3 5 -6v-3q-3 -5 -7 -5l-4 2q-4 0 -4 6q0 4 1 4zM238 571l-1 2 v1l-3 1v5v1h3v-1v1v1l1 -1h-1h1v1h2l-2 -1h3q3 0 3 6v1v7v3v1h1h-1h-3h-3q-1 0 -1 3l-3 -3v7h16h2h2h1h2v-1v-17h2v-4v-2q0 -1 2 -1l4 -1l-1 -9h-2h-10h-2h-2h-4h-3h-1h-2zM301 573v7h2q5 2 5 4v4q0 3 -2 6h2q0 5 -8 5q-7 0 -7 -5h1q-1 -3 -1 -7v-3q0 -4 1 -4h3v-7v-2h-4h-1 h-3h-2h-8h-3h-3h-2h-2v2v1h2h-2q0 1 2 1h-2v5h2h1l4 1q2 1 2 3v3q0 4 -2 7h2q0 5 -5 5h-2l-2 3v1v2l2 1l1 2h1h3h2h9h5v-2l1 -1h-1h1h-1v-2h1q7 7 13 7h2q5 0 10 -5q6 -6 6 -7h-4q4 0 4 -3v-1v-12q0 -1 3 -1l1 -1v-9h-15h-2h-1h-9v2zM383 598h-2l2 -3v-1l1 -5q0 -8 -8 -14 q-6 -4 -17 -4h-2h-1h-1h-3h-2q-18 3 -18 17q0 2 1 4l1 3h-2q0 4 4 10q12 5 21 5h2h1q4 0 8.5 -1t5.5 -1q1 -1 7 -5l2 -4v-1zM369 589h-2q0 2 -1 5l-2 1h2h-2v3h2q0 4 -6 5h-1h-2h-1q-3 0 -6 -4q-1 -1 -1 -4h3q-3 -1 -3 -6v-1v-1l1 -5q4 -2 7 -2q5 0 9 2l1 5q0 1 2 2z M432 606h2h12v-1v-2v-4h-3q-5 -1 -7 -4v-1l4 1v-1q0 -1 -3.5 -4.5t-4.5 -5.5q-4 -8 -12 -20q-6 -8 -15 -8t-13 4q-1 3 -1 6q0 5 4 5h2q7 0 8 -5v-2h1q6 0 7 7q-4 9 -7 10l-2 -1l18 14h1l-7 -5l6 -5q5 7 5 10v1v3l-2 1q-1 0 -9 -5h-1l10 8v1q0 -1 -2 -1v-3h-1h1h-1v3h1l-1 1 v3h7h3zM390 598h-2v1v3v3v1h4h28v-1v-6q-4 0 -5 -1v-3v-1v-3v-2q-6 -7 -10 -7h-1v-1v-1l-3 1l3 1l1 2l-1 3l-3 -3l3 -2h-3v2q0 3 3 3q-6 2 -9 7h2q-2 4 -7 4zM13 640h8l5 5h-5q6 1 6 10v3q0 5 0.5 10.5t0.5 7.5t-0.5 4.5t-2.5 3t-4.5 1t-7.5 0.5v14h85v-24h-11v2.5t-3.5 4.5 t-10.5 3h-24v-10l3 -4h2q11 0 11 5l1 3h13v-28h-13l-1 4q0 4 -13 4q0 -9 2 -12h1v-2h-6q6 -2 7 -2q3 -3 6 -3h3v-11h-52v11zM126 662q17 0 17 6q0 8 -11 8q-7 0 -10 -1l3 -6q0 -4 -7 -4q-13 0 -14 6q0 10 17 12h8q29 0 35 -14v-3v-12q0 -3 -3 -4h3v-3l-3 -2l3 -1v-4l2 -2 q1 0 1 7l1 2v8h9v-12q0 -3 -1 -6t-1 -4q-1 0 -2 -3q-4 -1 -15.5 -0.5t-12.5 3.5l-3 5v-1q-3 -1 -6.5 -3.5t-7.5 -4.5h-2h-8q-13 0 -17 9q-5 18 9 23q4 1 16 1zM143 659h-1q-8 -4 -16 -5q1 -7 -1 -10l4 -4h7v-2h2l-2 5l6 2h-2h-2v2q5 5 5 11v1zM175 699h2l19 -3h9v-21l19 4 q4 -1 8.5 -2.5t7.5 -1.5q8 -11 8 -17v-11q0 -7 -6.5 -13.5t-19.5 -7.5l-2 -3q0 3 -4 3q-10 3 -13 10l-2 -3l4 -6q-2 0 -2 2l-4 4v-3q0 -3 4 -3l2 -4l-2 -1q-2 0 -2 1l-3 6h-16v15l2 1h-2l2 5v4l1 -4q3 0 3 -3h1l-11 19h3l1 -1v-4l2 1v16q0 2 -1 4t-1 3l-3 1h-4v13zM205 659 l1 -12h-1q2 -9 10 -9h1q4 0 8 7v2h-1l1 8q0 11 -9 11q-8 0 -10 -7zM268 700h5q7 0 7 -8q0 -9 -8 -9h-3q-8 2 -8 10q0 1 3 6zM250 636l-2 2l2 2h2q1 3 3 3h4q3 0 3 8v3l-1 12l1 2l-1 1l-2 -1h-5q-1 0 -2 0.5t-2 0.5v10h30v-34q0 -1 2 -2t4 -3h7q0 -11 -1 -11h-38v1q-2 0 -4 3 v3zM294 644l-1 14q0 19 17 24q35 6 46 -14q1 -3 1 -18h-18l-3 1v-1l-1 1v-1h-3l-4 1h-1v-1h-7v4q-2 1 -3 1l1 -1h-1v-3h-2v-1h2v-5h1l2 2h4q-4 0 -4 -2h4v-1l1 -1h-1h-4q5 0 5 -3v3v1l4 -1v-3l3 -2h3v2h-1l-2 3l2 1l1 -4h1h3v3h2l4 1h11h1q-1 0 -2 -4h-5l2 -2h-2v2l-1 -2h1 v-1h-1v-1q-5 -7 -24 -7q-23 0 -31 15zM315 665h21q0 10 -4 10h-5q-4 0 -7 -2.5t-4 -4.5zM434 668v-23q5 -5 6 -5h4v-11h-38q-1 0 -1 1v10h6q1 2 1 3q1 1 1 2l-1 16h1q0 8 -8 8h-1q-11 0 -13 -8h4q-4 -2 -4 -11v-5q0 -5 6 -5h4v-11h-42v11h5q7 0 7 3v18q0 7 -4 7l-7 1h-1v10 l1 3h31v-7q14 8 21 8h3q9 0 15 -5q4 -4 4 -10zM6 67v-49l1 -3h2q3 2 3 3v20h11l4 1q0 3 -4 3h-11v25q0 7 8 7q4 0 4 -7q3 -3 4 -3l2 3q0 5 -3.5 9t-6.5 4q-14 0 -14 -13zM30 31v-2q0 -5 4.5 -9.5t9.5 -4.5q3 0 7 4.5t4 9.5v21q0 5 -4 8.5t-7 3.5q-14 0 -14 -12q0 -4 5 -4 q2 3 2 4q0 6 7 6q4 0 4 -6v-8h-4q-14 0 -14 -11zM37 29v2q0 7 7 7h4v-9q0 -7 -4 -7q-7 0 -7 7zM61 77v-48q0 -14 12 -14q11 0 11 14v21q0 12 -11 12h-7v15l-3 3h-1q-1 -2 -1 -3zM66 29v27h7q6 0 6 -6v-21q0 -8 -6 -8q-7 0 -7 8zM96 77l-2 3q-4 0 -4 -3t4 -3q2 0 2 3zM90 62 v-44q0 -3 4 -3q2 2 2 3v44l-2 1h-1zM125 49v1q0 5 -4 8.5t-9 3.5q-4 0 -7.5 -4t-3.5 -8v-21q0 -14 11 -14q13 0 13 14l-1 2q-5 0 -5 -2q0 -7 -7 -7q-5 0 -5 7v6h5q13 0 13 14zM119 50v-1q0 -8 -7 -8h-5v9q0 6 5 6q7 0 7 -6zM132 60v-42l1 -3q3 0 3 3v38h7q7 0 7 -6v-32 q0 -3 4 -3q2 2 2 3v32q0 12 -13 12h-8q-3 0 -3 -2zM160 50v-21q0 -14 13 -14q5 0 9.5 4t4.5 10v48l-5 3h-1q-1 -2 -1 -3v-15h-7q-13 0 -13 -12zM173 56h7v-27q0 -8 -7 -8t-7 8v21q0 6 7 6zM215 49v1q0 12 -13 12q-11 0 -11 -12v-21q0 -14 11 -14q13 0 13 14q0 2 -3 2 q-2 0 -2 -2q0 -7 -8 -7q-6 0 -6 7v6h6q13 0 13 14zM210 50v-1q0 -8 -8 -8h-6v9q0 6 6 6q8 0 8 -6zM227 39l9 -5q2 0 2 -5q0 -7 -7 -7q-4 0 -4 7q0 3 -5 3q-2 -1 -2 -3q0 -5 4 -9.5t7 -4.5q5 0 9.5 4.5t4.5 9.5q0 9 -7 10l-8 6q-3 0 -3 5q0 6 4 6q7 0 7 -6q0 -4 6 -4q1 3 1 4 q0 12 -14 12q-3 0 -7 -3.5t-4 -8.5q0 -8 7 -11zM251 50v-47l1 -3q3 0 3 3v14h7q13 0 13 12v21q0 5 -4 8.5t-9 3.5q-11 0 -11 -12zM262 21h-7v29q0 6 7 6t7 -6v-21q0 -8 -7 -8zM286 77q0 3 -3 3q-4 0 -4 -3t4 -3q3 0 3 3zM279 62v-44q0 -3 4 -3q3 0 3 3v44q-1 1 -3 1zM292 60 v-42q0 -3 1 -3q4 0 4 3v38h6q7 0 7 -6v-32q0 -3 4 -3q1 2 1 3v32q0 12 -12 12h-10q-1 0 -1 -2zM322 50v-21q0 -14 10 -14q14 0 14 14v21q0 12 -14 12q-10 0 -10 -12zM327 29v21q0 6 5 6q9 0 9 -6v-21q0 -7 -9 -7q-5 0 -5 7zM370 60v-38h-7q-6 0 -6 7v31q0 2 -4 2q-3 0 -3 -2 v-31q0 -5 4 -9.5t9 -4.5h7v-1q0 -8 -7 -8q-6 0 -6 8q0 1 -4 1q-3 0 -3 -1q0 -6 4 -10t9 -4q11 0 11 14v46l-1 2q-3 0 -3 -2zM381 21q0 -6 6 -6q5 0 5 6q0 4 -5 4q-6 0 -6 -4zM398 67v-49q0 -3 4 -3q2 0 2 3v20h11l4 1q0 3 -4 3h-11v25q0 7 7 7t7 -7q1 -3 2 -3l5 3 q0 13 -14 13q-13 0 -13 -13zM425 60v-42l1 -3q3 0 3 3v38h8q6 0 6 -6q0 -4 3 -4q2 0 2 4q0 12 -11 12h-10q-2 0 -2 -2zM8 389v30h15v-30h-15zM8 269v15h15v-15h-15zM51 433h-15h-13h-15v105h15h13h15h16h15h14h16v-105h-16h-14h-15h-16zM36 524h-13v-76h13h15h16h15h14v76 h-14h-15h-16h-15zM82 462h-15h-16h-15v46h15h16h15v-46zM67 358v-15h-16v15h16zM51 328h16v-14h-16v14zM36 181h15h16h15v-47h-15h-16h-15v47zM67 209h15h14h16v-104h-16h-14h-15h-16h-15h-13h-15v104h15h13h15h16zM82 119h14v74h-14h-15h-16h-15h-13v-74h13h15h16h15z M82 419h14h16h15v-16h-15h-16h-14v16zM82 389h14h16v-15h-16h-14h-15h-16v-16h-15v16h-13v15h13h15v14h-15v16h15h16v-30h15zM82 358h14h16v-15h-16h-14v15zM112 269v-16h-16v-14h-14v14h-15v16h-16v-30h-15h-13v-15h-15v29h15v16h13v31h-13v14h-15v29h15v-15h13v-14h15v-14 h16v-16h15v16h14h16v14h-16v14h16v15h15v15h15v16h-15v15h15h14h14h16v-15h-16v-16h-14v-30h-14h-15v-14h15h14v-14h-14h-15v-16h-15h-16v-15h16zM112 224h-16v15h16v-15zM112 374h15v-16h-15v16zM127 239h-15v14h15v-14zM127 477v16h15h14v-16h-14h-15zM127 448h15v-15h14 v-14h14v-16h-14h-14v16h-15v29zM127 253v31h15h14v-15h-14v-16h-15zM127 134v31h15v-31h-15zM142 538v-14h14v-16h-14h-15v30h15zM156 253v-14h-14v14h14zM156 224v-15h-14v-28h-15v43h15h14zM142 181h14v-16h-14v16zM156 493v15h14v-15h-14zM170 433h-14v15h14v-15z M217 462v-14h-16v-29h-15v29h-16v45h16h15v-16h-15v-15h15h16zM217 374h-16v15h-15v14h15v16h16v-16h15v30h14v15h-14v14h14v15h15v16h14v-16h16v16h14v-16h15v-74h16v16h15v-16h15h14v-14h-14h-15v-15h-15h-16v15h-15h-14v-31h-16v16h-14v-16h-15v31h15h14v14h-14v16h-15 v-30h-14h-15v-15zM275 448h-14v-15h14v-14h16v-16h14v45h-14v14h-16v-14zM201 358v-30h16v-14h-16h-15v-14h15v-16h-15v-15h-16v15h-14v16h14v14h-14v14h14v30h16h15zM246 477h-14v-15h-15v31h15h14v-16zM232 433h-15v15h15v-15zM217 119v15h15v-15h-15zM217 538h15h14v-14 h-14h-15v-16h-16v16h-15v14h15h16zM217 358h15h14v-15h-14v-15h-15v30zM246 105h-14v14h14v-14zM246 524h15v-31h-15v31zM261 119h-15v15h15v-15zM291 448v-15h-16v15h16zM291 165v-15h-16v-16h-14v47h14v-16h16zM305 538h15v-45h-15v31h-14v-16h-16v30h16h14zM320 358h-15 v16h15v-16zM351 193h-15v16h15v-16zM366 374v-16h-15v16h15zM351 269v31h15h14v-16h-14v-15h-15zM366 508h14h14h16v-46h-16h-14h-14v46zM380 419h14v-16h-14v16zM394 343h-14v31h14v-16h16v-15h-16zM394 374v15h16h15v-15h-15h-16zM380 328h14h16v15h15h16v-29h-16v-45h-15 v-45h15h16v-15h-16v-16h-15v16h-16v-16h-14v-28h14v16h16v-16h15v-15h-15v-16h-16v-15h-14h-14v-14h-15h-15h-16h-15h-14v14h-16v15h16v16h14v-16h15v16h-15v43h-14h-16v31h-14v-15h-15v-28h-14h-15h-16v-16h16v-31h-16v16h-15v-45h-16v14h-14v-14h-14h-15v14h15v15h14h14 v16h-14v15h14h16v28h15h16v16h15v15h14v15h15v14h-15h-14v-29h-15h-16v-15h-15v-16h-16v-12h-14v28h14v15h16v29h15v16h16v45h15v-14h14v14h-14v14h14v15h15v15h14v-30h-14v-44h14v-45h16v-30h14v75h-14v30h-16v14h16v30h14v-44h15v14h16v15h15v-15h15v-14h-15h-15v-30h-16 v-31h16v-14h15v14h15v-14h14h14v14h-14v16h14v15h16v30h-16h-14v14zM232 269h14v15h-14v-15zM336 119h15v46h-15v-46zM336 181h15h15v43h-15h-15h-16v-43h16zM366 134h14v16h-14v-16zM410 403v16h15h16v-30h-16v14h-15zM425 105h-15v29h15v-29zM410 538h15h16v-105h-16h-15 h-16h-14h-14h-15h-15v105h15h15h14h14h16zM410 448h15v76h-15h-16h-14h-14h-15v-76h15h14h14h16zM441 374v-16h-16v16h16zM425 181h16v-16h-16v16zM441 150v-16h-16v16h16z" />
</font>
</defs>
</svg>
